<?xml version="1.0" encoding="UTF-8"?>
<svg id="Layer_2" data-name="Layer 2" xmlns="http://www.w3.org/2000/svg" viewBox="0 0 19.64 19.64">
  <defs>
    <style>
      .cls-1 {
        fill: #ff0007;
        stroke-width: 0px;
      }
    </style>
  </defs>
  <g id="Layer_1-2" data-name="Layer 1">
    <g id="SZ5rIq">
      <g>
        <path class="cls-1" d="m14.84,0c-.67.24-.75.37-.75,1.1,0,.12,0,.24,0,.36,0,.02-.01.04-.02.06h-3.47c0-.12,0-.22,0-.33,0-.17,0-.33-.01-.5-.04-.38-.32-.65-.7-.67-.34-.02-.7.24-.76.6-.04.22-.02.46-.03.69,0,.06,0,.13,0,.2-1.17,0-2.33,0-3.53,0,0-.26.01-.52,0-.78-.03-.47-.36-.7-.72-.71-.37,0-.71.23-.76.69-.02.26,0,.52,0,.81-.21,0-.39,0-.57,0-.52.02-1.04.02-1.53.23C.82,2.26.1,3.14.05,4.42-.02,5.9,0,7.4,0,8.89c0,.34.14.64.49.78.27.11.52.06.74-.12.24-.19.3-.47.3-.76,0-1.27,0-2.53,0-3.8,0-.35-.02-.71.14-1.03.27-.53.7-.84,1.3-.88.36-.02.71,0,1.11,0,0,.1,0,.19,0,.28,0,.21-.01.43.03.63.08.37.41.61.77.59.36-.02.66-.29.69-.67.02-.27,0-.53,0-.82.09,0,.14-.01.2-.01,1.05,0,2.1,0,3.15,0,.15,0,.2.04.19.2-.01.19-.02.38,0,.57.02.43.35.74.75.74.41,0,.71-.29.74-.72.02-.25,0-.51,0-.77h3.5c0,.21,0,.42,0,.63,0,.35.1.65.45.8.46.2.95-.07,1.02-.57.03-.18.02-.36.03-.54,0-.11,0-.21,0-.38.5.04.99.02,1.45.13.57.13,1.06.69,1.06,1.5,0,1,0,2.01,0,3.01,0,2.93,0,5.87,0,8.8,0,.58-.21,1.06-.7,1.39-.27.18-.56.24-.87.25-1.85,0-3.7,0-5.54,0-.18,0-.36.03-.53.08-.3.09-.49.36-.5.68,0,.3.19.6.48.7.14.05.3.08.45.08,1.81,0,3.62,0,5.43,0,1.16,0,2.13-.41,2.78-1.4.18-.28.3-.6.4-.92.05-.17,0-.38,0-.54.04.12.09.26.13.4,0-4.39,0-8.77,0-13.16-.03.07-.06.15-.08.21-.03-.18-.04-.37-.09-.55-.35-1.18-1.45-2.04-2.69-2.11-.39-.02-.77-.04-1.17-.06,0-.12,0-.24,0-.35.03-.56-.1-1.01-.72-1.17h-.04Z"/>
        <path class="cls-1" d="m9.25,14.93c.04,2.49-1.97,4.65-4.56,4.68C2.25,19.65.04,17.69.03,15.01c-.01-2.56,2.07-4.6,4.58-4.62,2.47-.01,4.6,1.97,4.64,4.55Zm-4.61,3.18c1.74,0,3.1-1.37,3.11-3.12,0-1.69-1.4-3.14-3.19-3.1-1.67.03-3.02,1.41-3.03,3.13,0,1.72,1.37,3.09,3.11,3.09Z"/>
        <path class="cls-1" d="m10.74,14.74c0,.4.37.76.76.76.41,0,.77-.37.77-.78,0-.39-.38-.76-.77-.75-.4,0-.76.37-.76.77Z"/>
        <path class="cls-1" d="m12.24,11.38c0-.4-.37-.76-.75-.74-.4.02-.75.38-.74.79.01.4.36.73.75.73.41,0,.75-.36.74-.77Z"/>
        <path class="cls-1" d="m11.5,7.3c-.39,0-.73.35-.74.75-.01.39.34.75.74.76.39,0,.75-.34.75-.74,0-.42-.34-.77-.74-.77Z"/>
        <path class="cls-1" d="m8.18,8.8c.41-.01.73-.36.72-.76,0-.4-.37-.74-.76-.73-.41,0-.73.36-.71.79.02.4.35.72.75.71Z"/>
        <path class="cls-1" d="m14.1,14.74c0,.41.35.74.77.73.39,0,.72-.35.72-.75,0-.39-.35-.74-.76-.73-.41,0-.74.34-.74.75Z"/>
        <path class="cls-1" d="m15.58,8.06c0-.42-.35-.77-.75-.76-.38,0-.72.37-.72.76,0,.4.35.74.75.74.39,0,.73-.34.73-.74Z"/>
        <path class="cls-1" d="m15.58,11.39c0-.4-.33-.73-.73-.72-.41,0-.74.33-.74.74,0,.39.35.74.73.75.4,0,.75-.36.74-.77Z"/>
        <path class="cls-1" d="m4.09,8.07c0,.4.35.74.75.73.39,0,.72-.35.72-.74,0-.39-.36-.75-.75-.75-.39,0-.73.36-.73.76Z"/>
        <path class="cls-1" d="m5.38,14.19c0-.25.01-.5,0-.75-.02-.44-.35-.77-.75-.77-.41,0-.73.33-.75.79,0,.19,0,.38,0,.57.01.16-.03.21-.2.21-.48,0-.78.21-.89.6-.11.4.15.84.57.88.46.04.92.03,1.37,0,.35-.02.6-.31.62-.67.02-.29,0-.57,0-.86h0Z"/>
      </g>
    </g>
  </g>
</svg>