<?xml version="1.0" encoding="UTF-8"?>
<svg id="Layer_2" data-name="Layer 2" xmlns="http://www.w3.org/2000/svg" viewBox="0 0 22.17 19.74">
  <defs>
    <style>
      .cls-1 {
        fill: #ff0007;
        stroke-width: 0px;
      }
    </style>
  </defs>
  <g id="Layer_1-2" data-name="Layer 1">
    <g id="Z2CHk4">
      <path class="cls-1" d="m22.17,7.16s-.03.1-.03.15c-.11,1.32-.59,2.5-1.31,3.6-.76,1.16-1.68,2.19-2.71,3.11-2.03,1.81-4.09,3.59-6.15,5.37-.58.5-1.23.48-1.84-.04-1.58-1.36-3.15-2.71-4.72-4.07-1.33-1.16-2.62-2.36-3.68-3.78-.81-1.08-1.43-2.26-1.63-3.61C-.22,5.75.19,3.79,1.61,2.13,3.03.47,4.88-.19,7.03.08c1.4.18,2.53.89,3.47,1.91.2.21.38.45.57.67.2-.24.38-.47.58-.69C13.38.17,15.45-.44,17.83.31c2.23.7,3.53,2.33,4.11,4.55.11.42.15.86.22,1.29,0,.33,0,.66,0,1Zm-9.71,10.1c1.59-1.39,3.19-2.77,4.77-4.18.95-.86,1.82-1.8,2.52-2.87,1.14-1.73,1.47-3.59.78-5.57-.59-1.7-1.77-2.83-3.55-3.21-1.65-.36-3.09.12-4.25,1.35-.34.35-.62.76-.9,1.16-.42.6-1.07.6-1.48,0-.06-.08-.11-.17-.17-.25-.54-.79-1.19-1.48-2.06-1.9-1.48-.71-2.95-.61-4.34.21-1.5.88-2.22,2.28-2.43,3.96-.2,1.56.23,2.97,1.08,4.26.9,1.35,2.04,2.48,3.25,3.55,1.74,1.54,3.51,3.04,5.27,4.56.04.04.09.07.14.11.46-.4.92-.78,1.37-1.17Z"/>
    </g>
  </g>
</svg>