<?xml version="1.0" encoding="UTF-8"?>
<svg id="Layer_2" data-name="Layer 2" xmlns="http://www.w3.org/2000/svg" viewBox="0 0 15.7 17.93">
  <defs>
    <style>
      .cls-1 {
        fill: #ff0007;
        stroke-width: 0px;
      }
    </style>
  </defs>
  <g id="Layer_1-2" data-name="Layer 1">
    <g id="ibuv1r">
      <g>
        <path class="cls-1" d="m8.2,0c.16.03.32.05.48.08,1.98.39,3.36,2.08,3.37,4.09,0,.74,0,1.47,0,2.21,0,.06,0,.12,0,.2.28,0,.54,0,.8,0,1.6.01,2.83,1.23,2.84,2.83,0,1.9,0,3.79,0,5.69,0,.31-.05.63-.15.93-.39,1.18-1.45,1.9-2.71,1.9-3.31,0-6.63,0-9.94,0-.06,0-.13,0-.19,0-1.45-.06-2.63-1.25-2.68-2.7-.01-.45.25-.77.66-.79.4-.02.71.27.74.72.06.84.64,1.38,1.48,1.38,3.31,0,6.62,0,9.93,0,.88,0,1.48-.6,1.48-1.47,0-1.87,0-3.74,0-5.6,0-.87-.6-1.47-1.48-1.47-3.31,0-6.62,0-9.93,0-.14,0-.29.01-.43.05-.65.18-1.04.71-1.05,1.4,0,.84,0,1.68,0,2.52,0,.41-.31.72-.7.72-.39,0-.69-.3-.69-.71,0-.9-.02-1.81,0-2.71.03-1.1.77-2.11,1.8-2.49.35-.13.71-.19,1.08-.18.25,0,.5,0,.75,0,0-.83,0-1.62,0-2.42,0-1.78,1.09-3.31,2.77-3.9C6.76.14,7.14.08,7.5,0c.23,0,.47,0,.7,0Zm2.45,6.58c0-.06,0-.11,0-.17,0-.75,0-1.49,0-2.24,0-1.37-.98-2.52-2.31-2.73-1.41-.22-2.72.55-3.15,1.86-.08.25-.13.51-.13.77-.02.8,0,1.61,0,2.41,0,.03,0,.06,0,.1,1.87,0,3.72,0,5.6,0Z"/>
        <path class="cls-1" d="m11.77,12.82c.38,0,.7-.32.7-.7,0-.39-.32-.7-.71-.7-.38,0-.69.31-.69.69,0,.38.31.7.7.71Z"/>
        <path class="cls-1" d="m8.45,12.13c0,.38.33.7.71.69.38,0,.7-.33.69-.72,0-.38-.32-.68-.7-.68-.38,0-.7.32-.7.71Z"/>
        <path class="cls-1" d="m6.53,12.82c.38,0,.7-.33.69-.71,0-.38-.33-.7-.71-.69-.38,0-.68.32-.68.7,0,.39.32.7.71.7Z"/>
        <path class="cls-1" d="m3.86,11.42c-.38,0-.7.31-.7.7,0,.39.32.7.7.7.38,0,.69-.31.69-.69,0-.38-.31-.71-.7-.71Z"/>
      </g>
    </g>
  </g>
</svg>