<?xml version="1.0" encoding="UTF-8"?>
<!-- Generator: visioncortex VTracer 0.6.3 -->
<svg version="1.1" xmlns="http://www.w3.org/2000/svg" width="1280" height="1280">
<path d="M0 0 C0.83 -0.01 1.66 -0.01 2.51 -0.02 C4.26 -0.02 6.01 -0.02 7.76 -0.01 C10.4 -0 13.04 -0.03 15.68 -0.06 C25.25 -0.1 33.4 0.51 42.3 4.43 C43.13 4.78 43.95 5.12 44.8 5.47 C47 6.4 49.15 7.41 51.3 8.43 C52.02 8.74 52.74 9.05 53.48 9.38 C65.24 14.74 76.16 22.86 85.3 31.93 C85.8 32.43 86.3 32.92 86.81 33.42 C89.34 36.04 90.54 37.92 91.3 41.43 C92.29 41.76 93.28 42.09 94.3 42.43 C104.71 56.6 111.55 72.86 116.46 89.63 C117.51 93.13 118.65 96.59 119.8 100.06 C120.21 101.27 120.61 102.48 121.02 103.72 C122.14 106.96 123.32 110.16 124.53 113.37 C125.87 116.94 127.15 120.53 128.43 124.12 C128.83 125.22 128.83 125.22 129.23 126.34 C129.48 127.06 129.74 127.77 130 128.51 C130.34 129.46 130.34 129.46 130.69 130.43 C131.4 132.74 131.84 135.06 132.3 137.43 C133.98 137.44 133.98 137.44 135.68 137.44 C162.88 137.52 190.07 137.62 217.27 137.72 C230.42 137.77 243.57 137.82 256.73 137.86 C268.2 137.89 279.67 137.93 291.14 137.98 C297.21 138 303.27 138.02 309.34 138.04 C315.07 138.05 320.79 138.07 326.52 138.1 C328.61 138.11 330.69 138.12 332.78 138.12 C371.03 138.16 371.03 138.16 374.3 141.43 C375.97 141.47 377.64 141.48 379.3 141.43 C379.3 142.09 379.3 142.75 379.3 143.43 C381.04 143.59 381.04 143.59 382.8 143.75 C399.9 145.96 416.21 157.86 428.3 169.43 C428.93 170 429.56 170.56 430.2 171.14 C444.63 184.56 452.7 203.81 455.69 222.87 C456.1 226.26 456.1 226.26 457.3 228.43 C458.72 237.35 458.43 246.37 458.4 255.38 C458.4 257.11 458.4 258.85 458.4 260.58 C458.39 265.12 458.38 269.67 458.37 274.21 C458.36 278.86 458.36 283.5 458.35 288.15 C458.34 297.24 458.33 306.34 458.3 315.43 C459.29 315.43 460.28 315.43 461.3 315.43 C461.3 316.09 461.3 316.75 461.3 317.43 C462.03 317.23 462.75 317.02 463.49 316.81 C466.88 316.36 468.19 317.09 471.3 318.43 C472.7 318.75 474.09 319.04 475.49 319.31 C486.93 321.78 497.67 327.66 508.3 332.43 C508.3 333.09 508.3 333.75 508.3 334.43 C508.84 334.53 509.37 334.62 509.93 334.71 C530.92 341.06 552.64 365.31 563.3 383.43 C564.15 384.55 565 385.65 565.87 386.75 C578.35 403.95 584.63 428.82 586.09 449.58 C586.21 451.53 586.21 451.53 587.3 453.43 C587.41 455.35 587.45 457.26 587.46 459.18 C587.47 460.4 587.48 461.62 587.49 462.88 C587.5 464.25 587.5 465.61 587.51 466.97 C587.52 468.4 587.53 469.83 587.54 471.26 C587.57 475.14 587.59 479.03 587.61 482.92 C587.63 486.97 587.66 491.03 587.68 495.09 C587.73 502.78 587.78 510.47 587.82 518.16 C587.87 526.91 587.93 535.66 587.98 544.41 C588.1 562.42 588.2 580.43 588.3 598.43 C597.71 602.89 597.71 602.89 607.3 607.43 C607.3 608.09 607.3 608.75 607.3 609.43 C608.32 609.65 609.33 609.87 610.38 610.09 C614.84 611.37 617.72 613.86 621.12 616.93 C621.72 617.47 622.32 618 622.95 618.55 C628.28 623.3 633.4 628.24 638.3 633.43 C638.83 633.99 639.35 634.54 639.89 635.11 C642.65 638.21 644.47 641.46 646.21 645.19 C647.45 647.73 648.88 650.12 650.3 652.56 C653.4 658.21 655.31 663.98 656.78 670.24 C657.17 671.87 657.6 673.5 658.04 675.12 C660.83 686.24 660.73 697.1 660.69 708.5 C660.7 710.7 660.7 712.9 660.71 715.11 C660.72 721.05 660.72 726.99 660.71 732.92 C660.7 739.16 660.71 745.39 660.71 751.63 C660.72 762.76 660.71 773.89 660.69 785.02 C660.68 795.1 660.68 805.17 660.7 815.24 C660.71 826.97 660.72 838.7 660.71 850.44 C660.7 856.63 660.7 862.83 660.71 869.03 C660.72 874.85 660.72 880.68 660.7 886.51 C660.69 888.64 660.7 890.77 660.7 892.9 C660.76 913.06 660.76 913.06 657.3 922.43 C657.01 923.56 656.72 924.69 656.42 925.86 C651.57 943.33 639.76 960.4 625.3 971.43 C624.45 972.14 623.59 972.84 622.71 973.56 C617.1 978.02 611.44 981.65 605.05 984.87 C604.41 985.2 603.76 985.53 603.09 985.87 C598.57 988.06 594.18 989.24 589.3 990.43 C589.3 991.18 589.3 991.93 589.29 992.7 C589.19 1010.92 589.08 1029.14 588.97 1047.36 C588.91 1056.17 588.86 1064.99 588.81 1073.8 C588.76 1081.48 588.72 1089.17 588.67 1096.85 C588.64 1100.92 588.62 1104.98 588.6 1109.05 C588.58 1112.88 588.55 1116.71 588.52 1120.55 C588.51 1121.95 588.51 1123.35 588.5 1124.75 C588.41 1146.23 588.41 1146.23 586.3 1150.43 C586.06 1152.56 585.83 1154.68 585.62 1156.81 C584.84 1163.36 583.32 1169.56 581.43 1175.87 C581.06 1177.11 581.06 1177.11 580.69 1178.38 C579.04 1183.7 576.9 1188.51 574.3 1193.43 C573.85 1194.41 573.39 1195.38 572.92 1196.38 C569.14 1204.33 564.5 1211.37 559.3 1218.43 C558.74 1219.23 558.17 1220.02 557.58 1220.84 C552.99 1226.94 547.65 1232.32 542.3 1237.75 C541.54 1238.52 540.79 1239.3 540 1240.1 C535.95 1244.15 532.04 1247.55 527.03 1250.35 C525.17 1251.52 523.85 1252.87 522.3 1254.43 C501.73 1268.82 475.07 1277.91 450.05 1279.22 C447.44 1279.33 447.44 1279.33 445.53 1279.94 C442.63 1280.58 439.91 1280.56 436.93 1280.56 C435.97 1280.56 435.97 1280.56 434.99 1280.57 C432.83 1280.57 430.67 1280.57 428.5 1280.57 C426.94 1280.57 425.37 1280.57 423.8 1280.57 C419.47 1280.58 415.13 1280.58 410.8 1280.57 C406.1 1280.57 401.39 1280.58 396.69 1280.58 C387.35 1280.59 378 1280.59 368.66 1280.59 C357.47 1280.59 346.29 1280.6 335.1 1280.61 C308.05 1280.62 281.01 1280.63 253.96 1280.63 C241.17 1280.64 228.38 1280.64 215.58 1280.64 C172.48 1280.66 129.37 1280.67 86.26 1280.67 C84.2 1280.67 82.14 1280.67 80.08 1280.67 C75.95 1280.67 71.82 1280.67 67.68 1280.67 C62.84 1280.67 58.01 1280.67 53.17 1280.67 C51.78 1280.67 50.4 1280.67 49.01 1280.67 C4.56 1280.68 -39.89 1280.69 -84.34 1280.72 C-132.02 1280.74 -179.69 1280.76 -227.37 1280.76 C-232.53 1280.76 -237.69 1280.76 -242.85 1280.76 C-244.12 1280.76 -245.39 1280.76 -246.7 1280.76 C-267.14 1280.76 -287.58 1280.77 -308.01 1280.78 C-328.56 1280.8 -349.11 1280.8 -369.67 1280.79 C-381.87 1280.79 -394.07 1280.79 -406.28 1280.81 C-414.44 1280.82 -422.6 1280.82 -430.76 1280.81 C-435.41 1280.8 -440.05 1280.8 -444.7 1280.81 C-480.41 1280.91 -480.41 1280.91 -497.7 1277.43 C-499.57 1277.07 -499.57 1277.07 -501.48 1276.69 C-515.37 1273.83 -528.51 1268.63 -541.13 1262.25 C-541.86 1261.88 -542.6 1261.51 -543.35 1261.13 C-545.13 1260.23 -546.91 1259.33 -548.7 1258.43 C-548.7 1257.77 -548.7 1257.11 -548.7 1256.43 C-549.57 1256.19 -550.45 1255.95 -551.36 1255.7 C-554.95 1254.34 -557.16 1252.73 -560.07 1250.25 C-561.02 1249.44 -561.97 1248.63 -562.95 1247.8 C-563.86 1247.02 -564.76 1246.24 -565.7 1245.43 C-566.44 1244.82 -567.18 1244.2 -567.94 1243.57 C-576.28 1236.52 -582.85 1227.89 -589.7 1219.43 C-590.76 1218.14 -590.76 1218.14 -591.85 1216.82 C-593.8 1214.3 -595.13 1211.67 -596.5 1208.8 C-597.93 1205.97 -599.56 1203.28 -601.2 1200.56 C-604.28 1195.3 -606.62 1190.15 -608.7 1184.43 C-609.26 1182.95 -609.82 1181.46 -610.39 1179.97 C-613.33 1172.18 -616.19 1164.46 -618.19 1156.37 C-618.64 1154.37 -618.64 1154.37 -619.7 1152.43 C-619.79 1150.84 -619.82 1149.25 -619.82 1147.65 C-619.82 1146.64 -619.83 1145.62 -619.83 1144.57 C-619.83 1143.44 -619.83 1142.31 -619.82 1141.15 C-619.83 1139.96 -619.83 1138.76 -619.83 1137.53 C-619.83 1134.19 -619.83 1130.84 -619.83 1127.5 C-619.83 1123.87 -619.83 1120.24 -619.84 1116.62 C-619.84 1110.25 -619.84 1103.88 -619.84 1097.52 C-619.84 1088.05 -619.84 1078.58 -619.85 1069.12 C-619.86 1051.23 -619.86 1033.34 -619.86 1015.45 C-619.86 1001.65 -619.86 987.84 -619.87 974.03 C-619.87 970.06 -619.87 966.09 -619.87 962.12 C-619.87 961.13 -619.87 960.15 -619.87 959.13 C-619.88 931.36 -619.88 903.6 -619.88 875.83 C-619.88 874.78 -619.88 873.73 -619.88 872.65 C-619.88 867.34 -619.88 862.03 -619.88 856.72 C-619.88 855.67 -619.88 854.61 -619.88 853.53 C-619.88 851.4 -619.88 849.26 -619.88 847.13 C-619.88 813.93 -619.89 780.73 -619.9 747.54 C-619.92 710.27 -619.93 673.01 -619.92 635.75 C-619.92 631.78 -619.92 627.81 -619.92 623.84 C-619.92 622.86 -619.92 621.88 -619.92 620.88 C-619.92 605.11 -619.93 589.35 -619.94 573.58 C-619.95 557.76 -619.95 541.93 -619.94 526.1 C-619.94 516.68 -619.94 507.27 -619.95 497.85 C-619.96 491.57 -619.95 485.3 -619.95 479.02 C-619.94 475.43 -619.94 471.85 -619.95 468.26 C-619.96 464.41 -619.95 460.57 -619.94 456.72 C-619.95 455.59 -619.95 454.46 -619.96 453.3 C-619.95 452.28 -619.95 451.26 -619.94 450.21 C-619.94 449.33 -619.95 448.45 -619.95 447.54 C-619.7 445.43 -619.7 445.43 -617.7 443.43 C-615.01 443.16 -612.4 443.35 -609.7 443.43 C-610.03 442.77 -610.36 442.11 -610.7 441.43 C-613.72 440.78 -613.72 440.78 -616.7 440.43 C-617.23 421.93 -607.03 401.94 -597.7 386.43 C-596.95 385.14 -596.95 385.14 -596.2 383.83 C-591.26 375.6 -585.1 368.53 -578.7 361.43 C-578.09 360.75 -577.48 360.07 -576.86 359.38 C-561.16 342.76 -539.78 331.37 -518.57 323.5 C-517.78 323.2 -516.98 322.91 -516.17 322.6 C-512.02 321.12 -508.09 319.99 -503.7 319.43 C-504.3 312.87 -506.41 307.05 -508.63 300.87 C-509.35 298.85 -510.07 296.83 -510.79 294.8 C-511.29 293.39 -511.29 293.39 -511.8 291.95 C-520.62 267.13 -519.7 238.28 -508.61 214.32 C-503.3 203.38 -496.65 194.46 -488.1 185.86 C-486.83 184.57 -485.61 183.24 -484.39 181.91 C-471.28 167.84 -451.55 160.45 -433.7 154.43 C-430.86 153.44 -428.03 152.44 -425.2 151.43 C-423.75 150.92 -422.3 150.41 -420.85 149.9 C-420.15 149.65 -419.44 149.4 -418.72 149.15 C-416.86 148.49 -415 147.84 -413.14 147.19 C-405.84 144.62 -398.62 141.89 -391.44 139.02 C-387.38 137.42 -383.3 135.95 -379.15 134.59 C-372.27 132.32 -365.47 129.84 -358.66 127.35 C-354.99 126 -351.32 124.67 -347.66 123.33 C-346.95 123.07 -346.24 122.81 -345.51 122.54 C-340.56 120.74 -335.6 118.98 -330.63 117.25 C-324.03 114.95 -317.49 112.48 -310.95 110 C-302.22 106.69 -293.44 103.59 -284.56 100.73 C-279.81 99.19 -275.26 97.46 -270.7 95.43 C-264.83 93.11 -258.9 91.26 -252.84 89.5 C-249.71 88.53 -249.71 88.53 -247.01 87.05 C-242.26 84.73 -237.29 83.24 -232.26 81.62 C-224.02 78.93 -215.95 76.05 -207.95 72.74 C-203.86 71.1 -199.71 69.72 -195.52 68.36 C-191.84 67.15 -188.21 65.82 -184.58 64.49 C-181.44 63.34 -178.29 62.23 -175.13 61.12 C-168.85 58.89 -162.63 56.49 -156.44 54.02 C-152.38 52.42 -148.3 50.95 -144.15 49.59 C-137.27 47.32 -130.47 44.84 -123.66 42.35 C-119.99 41 -116.32 39.67 -112.66 38.33 C-111.95 38.07 -111.24 37.81 -110.51 37.54 C-105.56 35.74 -100.6 33.98 -95.63 32.25 C-89.03 29.95 -82.49 27.48 -75.95 25 C-67.22 21.69 -58.44 18.59 -49.56 15.73 C-44.81 14.19 -40.26 12.46 -35.7 10.43 C-29.83 8.11 -23.9 6.26 -17.84 4.5 C-14.69 3.55 -14.69 3.55 -12.04 1.89 C-7.86 0.07 -4.51 -0.02 0 0 Z M-17.51 118.87 C-26.21 122.14 -34.92 125.35 -43.7 128.43 C-45.07 128.92 -46.45 129.4 -47.82 129.89 C-50.01 130.66 -52.19 131.43 -54.37 132.2 C-60.02 134.19 -65.65 136.2 -71.29 138.21 C-73.63 139.05 -75.98 139.89 -78.32 140.71 C-84.4 142.87 -90.42 145.1 -96.39 147.53 C-99.42 148.72 -102.48 149.72 -105.57 150.73 C-108.19 151.6 -110.77 152.58 -113.36 153.56 C-119.99 156.04 -126.68 158.37 -133.36 160.73 C-139.43 162.87 -145.43 165.1 -151.39 167.53 C-154.42 168.72 -157.48 169.72 -160.57 170.73 C-163.19 171.6 -165.77 172.58 -168.36 173.56 C-174.99 176.04 -181.68 178.37 -188.36 180.73 C-194.43 182.87 -200.43 185.1 -206.39 187.53 C-209.42 188.72 -212.48 189.72 -215.57 190.73 C-218.19 191.6 -220.78 192.58 -223.37 193.56 C-230.05 196.06 -236.79 198.43 -243.54 200.77 C-252.95 204.06 -262.28 207.52 -271.61 211.04 C-278.88 213.78 -286.19 216.38 -293.54 218.91 C-298.96 220.79 -304.3 222.82 -309.63 224.93 C-317.09 227.89 -324.63 230.49 -332.27 232.95 C-337.38 234.61 -342.37 236.46 -347.35 238.49 C-350.64 239.81 -353.97 240.97 -357.32 242.12 C-365.6 245 -373.8 248.07 -381.99 251.17 C-386.4 252.84 -390.81 254.49 -395.27 256.02 C-395.92 256.24 -396.58 256.46 -397.26 256.7 C-398.93 257.26 -400.6 257.81 -402.28 258.36 C-405 259.31 -405 259.31 -406.7 262.43 C-406.39 264.49 -406.39 264.49 -405.51 266.62 C-405.12 267.69 -405.12 267.69 -404.71 268.79 C-404.38 269.66 -404.04 270.53 -403.7 271.43 C-401.56 277.12 -399.43 282.8 -397.32 288.5 C-396.86 289.72 -396.86 289.72 -396.4 290.98 C-393.99 297.5 -391.81 304.08 -389.74 310.72 C-388.99 313.56 -388.99 313.56 -386.7 314.43 C-385 314.53 -383.3 314.56 -381.61 314.56 C-379.98 314.56 -379.98 314.56 -378.32 314.56 C-377.12 314.56 -375.92 314.56 -374.69 314.55 C-372.78 314.56 -372.78 314.56 -370.84 314.56 C-367.31 314.56 -363.78 314.55 -360.25 314.55 C-356.45 314.55 -352.65 314.55 -348.85 314.55 C-342.26 314.55 -335.66 314.54 -329.07 314.54 C-319.54 314.53 -310.01 314.53 -300.48 314.53 C-285.02 314.53 -269.56 314.52 -254.1 314.51 C-239.08 314.5 -224.05 314.49 -209.03 314.49 C-208.11 314.49 -207.18 314.49 -206.23 314.49 C-201.58 314.49 -196.94 314.49 -192.3 314.48 C-153.76 314.47 -115.23 314.46 -76.7 314.43 C-76.69 313.42 -76.68 312.4 -76.68 311.36 C-76.62 301.73 -76.55 292.09 -76.46 282.46 C-76.42 277.51 -76.38 272.56 -76.35 267.6 C-76.32 262.81 -76.28 258.02 -76.23 253.23 C-76.22 251.42 -76.2 249.6 -76.2 247.79 C-76.09 220.41 -69.88 197.65 -51.7 176.43 C-51.02 175.61 -50.34 174.79 -49.64 173.94 C-33.38 154.85 -8.54 142.94 16.3 140.43 C17.59 136.57 16.71 135.52 15.05 131.87 C13.33 127.95 11.83 124.12 10.68 120 C9.67 116.43 8.52 113.46 6.3 110.43 C-1 110.43 -10.67 116.29 -17.51 118.87 Z M33.3 249.43 C33.28 257.76 33.26 266.09 33.25 274.42 C33.25 278.28 33.24 282.15 33.23 286.01 C33.22 289.74 33.21 293.47 33.21 297.2 C33.21 298.62 33.2 300.05 33.2 301.48 C33.19 303.47 33.19 305.46 33.19 307.45 C33.19 308.58 33.19 309.71 33.18 310.88 C33.01 313.37 33.01 313.37 34.3 314.43 C35.98 314.53 37.67 314.56 39.35 314.56 C40.45 314.56 41.55 314.56 42.68 314.56 C44.51 314.56 44.51 314.56 46.38 314.55 C48.31 314.56 48.31 314.56 50.28 314.56 C53.87 314.56 57.46 314.55 61.05 314.55 C64.92 314.55 68.78 314.55 72.64 314.55 C79.35 314.55 86.05 314.54 92.75 314.54 C102.44 314.53 112.12 314.53 121.81 314.53 C137.53 314.53 153.25 314.52 168.96 314.51 C184.23 314.5 199.51 314.49 214.78 314.49 C216.19 314.49 216.19 314.49 217.63 314.49 C222.35 314.49 227.06 314.49 231.78 314.48 C270.96 314.47 310.13 314.46 349.3 314.43 C349.33 305.98 349.35 297.52 349.36 289.06 C349.36 285.13 349.37 281.21 349.38 277.28 C349.39 273.49 349.4 269.71 349.4 265.92 C349.4 264.47 349.41 263.02 349.41 261.58 C349.42 259.56 349.42 257.53 349.42 255.51 C349.42 254.36 349.42 253.21 349.42 252.02 C349.6 249.5 349.6 249.5 348.3 248.43 C346.64 248.34 344.97 248.31 343.3 248.31 C342.21 248.31 341.12 248.3 339.99 248.3 C338.17 248.3 338.17 248.3 336.32 248.31 C334.4 248.3 334.4 248.3 332.44 248.3 C328.88 248.3 325.32 248.3 321.76 248.3 C317.92 248.31 314.08 248.3 310.25 248.3 C302.73 248.29 295.21 248.3 287.69 248.3 C281.58 248.3 275.46 248.3 269.35 248.3 C268.49 248.3 267.62 248.3 266.72 248.3 C264.96 248.3 263.2 248.3 261.44 248.3 C244.88 248.3 228.33 248.3 211.78 248.3 C197.56 248.31 183.35 248.31 169.13 248.3 C152.64 248.3 136.15 248.3 119.66 248.3 C117.9 248.3 116.15 248.3 114.39 248.3 C113.09 248.3 113.09 248.3 111.77 248.3 C105.66 248.3 99.56 248.3 93.45 248.3 C86.01 248.29 78.58 248.3 71.14 248.3 C67.34 248.3 63.55 248.3 59.75 248.3 C55.64 248.3 51.53 248.3 47.42 248.31 C46.21 248.3 45 248.3 43.75 248.3 C42.66 248.3 41.56 248.31 40.44 248.31 C39.49 248.31 38.54 248.31 37.56 248.31 C35.27 248.29 35.27 248.29 33.3 249.43 Z M-502.7 317.43 C-501.7 320.43 -501.7 320.43 -501.7 320.43 Z M-500.98 438.12 C-510.01 448.33 -511.85 461.46 -511.83 474.55 C-511.83 475.68 -511.83 476.81 -511.83 477.97 C-511.84 481.78 -511.84 485.58 -511.84 489.39 C-511.84 492.14 -511.84 494.88 -511.84 497.63 C-511.85 504.4 -511.85 511.18 -511.86 517.95 C-511.86 526.06 -511.86 534.17 -511.87 542.28 C-511.89 561.88 -511.89 581.49 -511.9 601.09 C-511.9 610.37 -511.9 619.64 -511.91 628.91 C-511.92 660.66 -511.93 692.41 -511.93 724.15 C-511.93 726.14 -511.93 728.14 -511.93 730.13 C-511.93 732.13 -511.93 734.12 -511.93 736.12 C-511.93 740.13 -511.94 744.14 -511.94 748.15 C-511.94 749.14 -511.94 750.13 -511.94 751.16 C-511.94 783.38 -511.96 815.6 -511.98 847.82 C-512 881.88 -512.02 915.94 -512.02 950.01 C-512.02 953.75 -512.02 957.49 -512.02 961.23 C-512.02 962.15 -512.02 963.07 -512.02 964.02 C-512.02 978.84 -512.03 993.65 -512.05 1008.47 C-512.06 1023.36 -512.06 1038.26 -512.06 1053.15 C-512.05 1062 -512.05 1070.84 -512.07 1079.69 C-512.08 1085.6 -512.08 1091.52 -512.07 1097.43 C-512.06 1100.8 -512.06 1104.16 -512.08 1107.53 C-512.09 1111.17 -512.08 1114.8 -512.07 1118.43 C-512.07 1119.47 -512.08 1120.5 -512.09 1121.57 C-511.99 1135.49 -508.5 1149.2 -498.84 1159.61 C-483.94 1172.24 -463.05 1170.59 -444.76 1170.56 C-443.22 1170.56 -441.67 1170.56 -440.13 1170.56 C-435.92 1170.57 -431.71 1170.57 -427.5 1170.56 C-422.9 1170.56 -418.31 1170.56 -413.72 1170.57 C-405.68 1170.57 -397.63 1170.57 -389.59 1170.57 C-377.64 1170.56 -365.68 1170.56 -353.73 1170.57 C-332.37 1170.57 -311.02 1170.57 -289.66 1170.57 C-270.98 1170.57 -252.3 1170.57 -233.61 1170.57 C-232.37 1170.57 -231.13 1170.57 -229.86 1170.57 C-224.82 1170.57 -219.79 1170.57 -214.76 1170.57 C-179.65 1170.57 -144.54 1170.57 -109.43 1170.57 C-108.44 1170.57 -108.44 1170.57 -107.42 1170.57 C-96.68 1170.57 -85.94 1170.56 -75.2 1170.56 C-32.6 1170.56 10.01 1170.56 52.62 1170.56 C63.36 1170.57 74.1 1170.57 84.84 1170.57 C85.83 1170.57 85.83 1170.57 86.84 1170.57 C122.55 1170.57 158.26 1170.57 193.96 1170.57 C198.98 1170.57 204 1170.57 209.02 1170.57 C210.26 1170.57 211.5 1170.57 212.77 1170.57 C231.45 1170.57 250.12 1170.57 268.8 1170.57 C290.03 1170.57 311.26 1170.57 332.49 1170.57 C344.37 1170.56 356.26 1170.56 368.14 1170.57 C376.08 1170.57 384.01 1170.57 391.95 1170.56 C396.47 1170.56 400.99 1170.56 405.52 1170.56 C409.63 1170.57 413.75 1170.57 417.86 1170.56 C419.34 1170.56 420.82 1170.56 422.3 1170.56 C438.87 1170.59 452.02 1169.36 465.3 1158.43 C467.61 1155.56 467.61 1155.56 469.3 1152.43 C470.18 1151.33 471.05 1150.22 471.93 1149.12 C477.42 1141.3 476.58 1131.53 476.53 1122.38 C476.53 1120.98 476.53 1119.58 476.53 1118.18 C476.53 1114.4 476.52 1110.62 476.51 1106.85 C476.49 1102.89 476.49 1098.94 476.49 1094.98 C476.49 1087.5 476.47 1080.02 476.45 1072.54 C476.43 1064.02 476.42 1055.5 476.41 1046.98 C476.38 1029.47 476.35 1011.95 476.3 994.43 C475.63 994.43 474.97 994.43 474.28 994.42 C457.9 994.34 441.53 994.25 425.16 994.15 C417.25 994.1 409.33 994.05 401.41 994.01 C394.5 993.98 387.59 993.94 380.69 993.89 C377.03 993.87 373.38 993.84 369.73 993.83 C350.47 993.76 332.05 993.34 313.3 988.43 C311.96 988.1 311.96 988.1 310.59 987.75 C299.57 984.88 288.55 981.43 278.3 976.43 C277.38 975.99 276.46 975.55 275.52 975.1 C257.16 966.13 241.37 954.59 226.14 941.04 C224.94 939.99 223.71 938.96 222.47 937.95 C218.63 934.83 215.77 931.58 212.89 927.56 C211.19 925.28 209.35 923.22 207.43 921.12 C200.62 913.56 195.03 905.43 190.3 896.43 C189.45 894.89 188.6 893.35 187.74 891.81 C187.12 890.69 187.12 890.69 186.49 889.54 C185.46 887.71 184.39 885.91 183.3 884.12 C180.45 879.13 178.43 873.76 176.3 868.43 C175.67 866.85 175.67 866.85 175.02 865.23 C170.79 854.52 166.83 844.03 166.3 832.43 C165.64 832.43 164.98 832.43 164.3 832.43 C163.97 825.5 163.64 818.57 163.3 811.43 C162.97 811.43 162.64 811.43 162.3 811.43 C162.28 806.77 162.26 802.11 162.25 797.44 C162.24 795.86 162.24 794.27 162.23 792.68 C162.22 790.4 162.21 788.13 162.21 785.85 C162.2 785.14 162.2 784.42 162.19 783.69 C162.19 778.66 162.19 778.66 163.3 776.43 C163.59 774.63 163.84 772.81 164.07 771 C165.81 757.67 168 745.11 172.58 732.46 C173.26 730.56 173.89 728.64 174.52 726.72 C186.94 689.52 213.26 654.88 245.3 632.43 C246.29 631.74 247.27 631.05 248.28 630.34 C259.04 622.97 270.28 616.49 282.3 611.43 C283.98 610.71 283.98 610.71 285.69 609.97 C294.71 606.2 303.82 603.41 313.29 600.96 C315.03 600.51 316.75 600.02 318.48 599.53 C336.44 594.56 355.2 595.1 373.67 595.03 C376.94 595.01 380.2 594.99 383.47 594.97 C392.95 594.9 402.44 594.86 411.93 594.81 C433.17 594.68 454.42 594.56 476.3 594.43 C476.63 549.88 476.96 505.33 477.3 459.43 C476.64 459.43 475.98 459.43 475.3 459.43 C475.4 457.92 475.4 457.92 475.49 456.37 C475.28 452 474.22 449.34 472.3 445.43 C471.89 444.42 471.48 443.41 471.05 442.37 C469.1 439.09 466.98 437.18 464.02 434.83 C462.3 433.43 462.3 433.43 460.91 431.92 C450.09 421.94 430.15 423.13 416.51 423.18 C414.97 423.18 413.43 423.18 411.89 423.17 C407.68 423.17 403.47 423.17 399.26 423.18 C394.68 423.18 390.09 423.18 385.5 423.17 C377.47 423.16 369.44 423.16 361.4 423.17 C349.46 423.18 337.51 423.17 325.57 423.17 C304.23 423.16 282.9 423.16 261.56 423.16 C242.89 423.17 224.22 423.17 205.55 423.17 C204.31 423.17 203.07 423.17 201.8 423.17 C196.77 423.16 191.74 423.16 186.71 423.16 C151.62 423.16 116.52 423.16 81.43 423.17 C80.77 423.17 80.11 423.17 79.43 423.17 C68.69 423.17 57.96 423.17 47.22 423.17 C4.65 423.18 -37.93 423.18 -80.5 423.17 C-91.23 423.17 -101.96 423.17 -112.69 423.17 C-113.35 423.17 -114.01 423.17 -114.69 423.17 C-150.37 423.16 -186.06 423.16 -221.75 423.16 C-226.77 423.16 -231.79 423.17 -236.81 423.17 C-238.04 423.17 -239.28 423.17 -240.55 423.17 C-259.21 423.17 -277.87 423.17 -296.53 423.16 C-317.74 423.16 -338.96 423.16 -360.18 423.17 C-372.05 423.17 -383.92 423.17 -395.8 423.17 C-403.73 423.16 -411.66 423.16 -419.6 423.17 C-424.12 423.18 -428.63 423.18 -433.15 423.17 C-437.27 423.17 -441.39 423.17 -445.5 423.18 C-446.98 423.18 -448.45 423.18 -449.92 423.17 C-468.73 423.11 -487.04 423.98 -500.98 438.12 Z M477.3 469.43 C477.3 511.01 477.3 552.59 477.3 595.43 C477.63 595.43 477.96 595.43 478.3 595.43 C478.3 553.85 478.3 512.27 478.3 469.43 C477.97 469.43 477.64 469.43 477.3 469.43 Z M333.49 708.25 C332.56 708.64 332.56 708.64 331.6 709.04 C326.63 711.18 321.92 713.62 317.3 716.43 C316.65 716.81 316.01 717.19 315.34 717.57 C293.65 730.48 279.63 752.27 273.3 776.43 C267.57 801.11 273.75 826.13 286.3 847.43 C289.8 852.59 293.89 857.05 298.3 861.43 C299.09 862.27 299.88 863.1 300.69 863.96 C309.27 872.47 322.36 879.92 334.3 882.43 C335.29 882.1 336.28 881.77 337.3 881.43 C337.3 882.09 337.3 882.75 337.3 883.43 C340.27 883.43 343.24 883.43 346.3 883.43 C346.63 884.09 346.96 884.75 347.3 885.43 C402.25 884.94 402.25 884.94 458.3 884.43 C458.3 885.09 458.3 885.75 458.3 886.43 C488.66 886.1 519.02 885.77 550.3 885.43 C550.3 825.37 550.3 765.31 550.3 703.43 C515.99 703.38 515.99 703.38 481.67 703.34 C467.67 703.32 453.67 703.31 439.67 703.28 C429.48 703.26 419.28 703.25 409.08 703.25 C403.69 703.24 398.29 703.24 392.9 703.22 C387.81 703.21 382.72 703.2 377.64 703.21 C375.78 703.21 373.92 703.2 372.06 703.2 C352.36 703.09 352.36 703.09 333.49 708.25 Z M162.3 778.43 C162.3 780.08 162.3 781.73 162.3 783.43 C162.63 783.43 162.96 783.43 163.3 783.43 C163.3 781.78 163.3 780.13 163.3 778.43 C162.97 778.43 162.64 778.43 162.3 778.43 Z M381.3 885.43 C381.3 885.76 381.3 886.09 381.3 886.43 C383.28 886.43 385.26 886.43 387.3 886.43 C387.3 886.1 387.3 885.77 387.3 885.43 C385.32 885.43 383.34 885.43 381.3 885.43 Z M470.3 886.43 C470.3 886.76 470.3 887.09 470.3 887.43 C497.03 887.43 523.76 887.43 551.3 887.43 C551.3 887.1 551.3 886.77 551.3 886.43 C524.57 886.43 497.84 886.43 470.3 886.43 Z M477.3 995.43 C477.3 1039.98 477.3 1084.53 477.3 1130.43 C477.63 1130.43 477.96 1130.43 478.3 1130.43 C478.3 1085.88 478.3 1041.33 478.3 995.43 C477.97 995.43 477.64 995.43 477.3 995.43 Z M-465.7 1170.43 C-465.7 1170.76 -465.7 1171.09 -465.7 1171.43 C-464.05 1171.43 -462.4 1171.43 -460.7 1171.43 C-460.7 1171.1 -460.7 1170.77 -460.7 1170.43 C-462.35 1170.43 -464 1170.43 -465.7 1170.43 Z " fill="#FA0309" transform="translate(619.6953125,-0.43359375)"/>
<path d="M0 0 C1.15 0.01 2.3 0.02 3.49 0.03 C4.36 0.04 5.23 0.05 6.12 0.06 C6.12 0.72 6.12 1.38 6.12 2.06 C6.96 1.84 7.79 1.61 8.64 1.38 C12.97 0.98 15.96 2.17 19.81 3.94 C20.86 4.41 20.86 4.41 21.94 4.89 C34.53 10.84 45.51 21.19 51.12 34.06 C52.8 39.33 53.4 44.73 53.88 50.21 C54.04 52.15 54.04 52.15 55.12 54.06 C55.47 59.72 54.51 64.63 53.12 70.06 C52.86 71.22 52.59 72.37 52.31 73.56 C48.03 86.19 38.5 97.03 26.97 103.66 C18.18 107.99 10.16 109.41 0.44 109.5 C-0.43 109.51 -1.3 109.52 -2.19 109.53 C-16.91 109.33 -27.64 103.2 -37.88 93.06 C-47.88 82.63 -47.88 82.63 -47.88 77.06 C-48.53 77.06 -49.2 77.06 -49.88 77.06 C-55.03 62.33 -56.35 47.27 -49.77 32.61 C-47.01 27.38 -43.63 22.62 -39.88 18.06 C-39.38 17.42 -38.89 16.77 -38.38 16.1 C-29.31 5.52 -13.6 -0.14 0 0 Z " fill="#FB040A" transform="translate(981.875,739.9375)"/>
<path d="M0 0 C1 4 1 4 1 4 Z " fill="#000000" transform="translate(1036,788)"/>
<path d="" fill="#000000" transform="translate(0,0)"/>
<path d="" fill="#000000" transform="translate(0,0)"/>
<path d="" fill="#000000" transform="translate(0,0)"/>
<path d="" fill="#000000" transform="translate(0,0)"/>
<path d="" fill="#000000" transform="translate(0,0)"/>
<path d="" fill="#000000" transform="translate(0,0)"/>
</svg>
