<?xml version="1.0" encoding="UTF-8"?>
<svg id="Layer_2" data-name="Layer 2" xmlns="http://www.w3.org/2000/svg" viewBox="0 0 12.9 15.32">
  <defs>
    <style>
      .cls-1 {
        fill: #ff0007;
        stroke-width: 0px;
      }
    </style>
  </defs>
  <g id="Layer_1-2" data-name="Layer 1">
    <g>
      <path class="cls-1" d="m0,3.04c0,.6,0,1.19,0,1.79v1.1c0,4.14,2.38,7.71,6.19,9.33l.16.07h.2c1.08-.44,2.05-1.03,2.86-1.74,1.7-1.49,2.8-3.36,3.27-5.57.15-.68.21-1.38.21-2.15,0-.57,0-1.13,0-1.7v-1.13c0-.31-.09-.45-.38-.57l-.79-.33C10.05,1.45,8.38.75,6.71.06c-.18-.08-.34-.08-.51,0C4.26.86,2.32,1.67.38,2.47.12,2.58,0,2.76,0,3.04Zm.95,1.96h.04s0-.33,0-.33c0-.38,0-.76,0-1.15,0-.17.06-.26.22-.32.83-.34,1.65-.68,2.48-1.03.86-.36,1.73-.72,2.59-1.07.1-.04.24-.04.34,0,.85.35,1.7.7,2.55,1.06.84.35,1.69.7,2.53,1.05.19.08.21.2.21.33,0,.78,0,1.57,0,2.35,0,.71-.06,1.34-.19,1.91-.66,2.95-2.39,5.12-5.13,6.43-.04.02-.09.03-.14.03s-.1-.01-.15-.03c-1.35-.62-2.49-1.51-3.38-2.66-1.02-1.31-1.64-2.78-1.83-4.36-.06-.48-.08-.97-.1-1.44,0-.21-.02-.43-.03-.64v-.11Z"/>
      <path class="cls-1" d="m3.42,6.04v3.6c0,.26.22.48.48.48h5.1c.26,0,.48-.22.48-.48v-3.6c0-.26-.22-.48-.48-.48h-.53v-.41c0-1.12-.91-2.02-2.02-2.02s-2.02.91-2.02,2.02v.41h-.53c-.26,0-.48.22-.48.48Zm4.09-.48h-2.13v-.41c0-.59.48-1.06,1.06-1.06s1.06.48,1.06,1.06v.41Zm-3.13.96h4.14v2.64h-4.14v-2.64Z"/>
    </g>
  </g>
</svg>