<?xml version="1.0" encoding="UTF-8"?>
<svg id="Layer_2" data-name="Layer 2" xmlns="http://www.w3.org/2000/svg" viewBox="0 0 15.07 16.75">
  <defs>
    <style>
      .cls-1 {
        fill: #ff0007;
        fill-rule: evenodd;
        stroke-width: 0px;
      }
    </style>
  </defs>
  <g id="Layer_1-2" data-name="Layer 1">
    <g>
      <path class="cls-1" d="m13.85,11.27c-.79-.79-1.85-1.23-2.96-1.23h-6.7c-1.11,0-2.18.44-2.96,1.23C.44,12.06,0,13.12,0,14.24v1.67c0,.46.37.84.84.84s.84-.37.84-.84v-1.67c0-.67.26-1.31.74-1.78.47-.47,1.11-.74,1.78-.74h6.7c.67,0,1.31.26,1.78.74.47.47.74,1.11.74,1.78v1.67c0,.46.37.84.84.84s.84-.37.84-.84v-1.67c0-1.11-.44-2.18-1.23-2.96Z"/>
      <path class="cls-1" d="m7.54,8.37c-2.31,0-4.19-1.87-4.19-4.19S5.22,0,7.54,0c2.31,0,4.19,1.87,4.19,4.19s-1.87,4.19-4.19,4.19Zm-2.51-4.19c0,1.39,1.12,2.51,2.51,2.51s2.51-1.12,2.51-2.51-1.12-2.51-2.51-2.51-2.51,1.12-2.51,2.51Z"/>
    </g>
  </g>
</svg>