<?xml version="1.0" encoding="UTF-8"?>
<svg id="Layer_2" data-name="Layer 2" xmlns="http://www.w3.org/2000/svg" viewBox="0 0 15.07 16.95">
  <defs>
    <style>
      .cls-1 {
        fill: #ff0007;
        stroke-width: 0px;
      }
    </style>
  </defs>
  <g id="Layer_1-2" data-name="Layer 1">
    <g>
      <path class="cls-1" d="m10.97,15.14c-.1.06-.15.17-.14.28,0,.12.08.22.19.27.06.02.12.04.21.04h.44c.35,0,.7,0,1.05,0s.66,0,.99,0c.67,0,1.2-.44,1.34-1.08.03-.13.03-.27.03-.37,0-4.27,0-8.55,0-12.82,0-.76-.34-1.22-1.08-1.43l-.03-.03h-7.86c-.33.1-.56.31-.8.56-.68.69-1.37,1.38-2.05,2.05-.26.26-.39.57-.39.94,0,.96,0,1.93,0,2.89v1.14s0,.1,0,.15c.04.16.16.26.32.26,0,0,.01,0,.02,0,.17,0,.28-.11.31-.28,0-.04,0-.09,0-.14V3.47s.07,0,.1,0h.53c.25,0,.51,0,.76,0,.84,0,1.41-.57,1.41-1.41,0-.34,0-.68,0-1.02v-.38h7.32c.49,0,.76.27.76.76,0,4.3,0,8.6,0,12.9,0,.48-.27.76-.75.76-.37,0-.74,0-1.12,0-.43,0-.86,0-1.29,0-.08,0-.19,0-.28.06ZM5.66,2.18c-.02.36-.3.61-.69.62-.22,0-.44,0-.66,0h-.28s1.63-1.63,1.63-1.63c0,.06,0,.12,0,.17,0,.27,0,.56,0,.83Z"/>
      <path class="cls-1" d="m.02,12.61c.04.15.14.28.29.37.27.16.56.3.85.42.13.06.3.03.4,0,.14-.05.23,0,.37.09-.22.37-.21.73.03,1.05.23.31.55.42.96.34.07.24.19.43.37.55.2.13.41.18.65.15.07.31.23.52.48.65.25.13.51.14.79.03,0,0,0,0,0,0,.08.29.28.51.54.62.11.04.22.07.34.07.16,0,.32-.04.47-.13.14-.08.27-.16.41-.24l.13-.08c.34.22.62.3.87.25.23-.05.42-.21.6-.48.26.07.5.05.71-.06.23-.12.38-.31.46-.57.53-.04.77-.21.94-.67.01,0,.03,0,.04,0,.36,0,.68-.2.84-.52.17-.35.12-.75-.14-1.11.34.14.69.1,1.03-.11.07-.04.13-.08.2-.12.07-.04.15-.09.22-.13.31-.19.39-.54.21-.85-.7-1.18-1.39-2.36-2.1-3.54-.18-.3-.53-.39-.84-.22-.23.13-.41.23-.57.34-.31.21-.47.52-.46.89,0,.08-.02.11-.09.15-.19.1-.38.11-.58.04-.15-.05-.29-.1-.42-.16-.44-.2-.89-.17-1.33.08-.05.03-.14.04-.22.02-.21-.04-.43-.09-.64-.16-.32-.1-.64-.08-.98.07l-.05.02c-.13.06-.27.12-.41.15-.09.02-.18.01-.29,0-.02,0-.03,0-.05,0,.06-.59-.1-.9-.62-1.21l-.11-.07c-.09-.05-.17-.1-.26-.15-.33-.18-.68-.09-.86.22-.7,1.17-1.4,2.35-2.09,3.52-.09.15-.12.33-.08.49Zm2.41-1.27c-.14.22-.27.45-.4.67-.11.18-.22.37-.33.55-.12.19-.3.27-.47.19-.14-.06-.28-.15-.43-.23-.04-.03-.09-.05-.13-.08l2.06-3.47.1.06c.11.07.22.13.33.19.26.16.31.36.16.62-.03.05-.06.1-.09.16-.05.09-.11.18-.16.27-.1.18-.05.37.11.47.15.08.34.03.45-.13.02-.04.05-.08.07-.13.02-.05.03-.06.1-.04.27.09.55.09.82-.01.07-.02.14-.05.21-.08.11-.04.21-.09.32-.12s.25-.07.36-.04c.28.05.57.13.84.21.24.07.37.22.39.44.01.27.01.54,0,.82,0,.09,0,.19,0,.28-.27-.01-.43-.19-.46-.52-.02-.2-.11-.28-.18-.32-.03-.02-.08-.03-.13-.03-.06,0-.13.02-.22.07-.1.06-.2.12-.3.18l-.78.46c-.71.42-1.41.84-2.12,1.25-.04.02-.08.03-.1.02-.06-.03-.12-.07-.18-.11,0,0-.01,0-.02-.01l.5-.85c.09-.15.17-.29.26-.44.09-.16.08-.31-.04-.41-.08-.07-.23-.1-.33-.09-.08.01-.15.08-.22.2Zm2.59,1.58s-.08.04-.11.06l-.52.31c-.5.3-1,.59-1.51.89-.08.05-.18.07-.25.07-.13,0-.18-.12-.2-.18-.03-.12.02-.22.14-.29.41-.25.83-.49,1.24-.73l1.91-1.13s.03.05.04.08c.22.38.54.59.96.62.19.01.37-.04.49-.15.13-.12.19-.28.2-.48,0-.11,0-.22,0-.33,0-.11,0-.22,0-.33v-.04c0-.36.01-.74-.23-1.06.13-.05.26-.06.39-.02.17.06.34.12.5.18.31.13.59.17.85.11.12-.03.24-.07.35-.12.03-.01.06-.02.09-.04l1.45,2.45s-.03,0-.05,0c-.04,0-.08-.02-.12-.03-.07-.02-.13-.04-.21-.04-.3-.02-.57.1-.78.36-.27-.19-.57-.24-.85-.15-.28.09-.51.32-.61.63-.72.09-.99.41-.94,1.13-.28.1-.48.28-.58.52-.1.24-.1.51.02.79l-.05.03c-.12.07-.25.15-.38.22-.09.06-.19.07-.26.05-.06-.02-.1-.05-.14-.11-.08-.13-.02-.27.14-.37.06-.03.12-.07.17-.1.08-.05.16-.09.23-.14.17-.11.23-.3.13-.46-.09-.16-.28-.2-.47-.1-.04.02-.07.04-.11.06l-.32.19c-.22.13-.45.27-.68.4-.13.07-.28.04-.35-.08-.08-.12-.04-.27.1-.36.02-.02.05-.03.08-.05l.05-.03,1.06-.63c.16-.1.22-.25.16-.39-.04-.1-.15-.19-.26-.22-.09-.03-.19.02-.29.08-.32.18-.63.37-.94.56l-.58.34c-.09.05-.19.07-.26.06-.06-.02-.11-.05-.14-.11-.11-.19.05-.32.15-.38.32-.19.63-.38.95-.56l.52-.31s.1-.06.14-.09c.14-.11.18-.26.1-.42-.08-.16-.26-.21-.43-.14Zm2.9,3.12c-.07.08-.16.1-.26.07-.12-.04-.38-.39-.4-.61,0,0,.01-.02.02-.03.03-.05.08-.11.14-.15.03-.02.07-.03.1-.03.05,0,.11.02.15.07.11.12.21.26.29.41.07.12,0,.22-.04.26Zm2.81-1.72s-.04-.02-.06-.03c-.05-.02-.1-.04-.12-.07-.13-.16-.26-.33-.38-.52-.06-.1-.03-.23.07-.31.05-.03.1-.05.15-.05.07,0,.13.03.18.08.15.19.27.35.36.51.04.07.05.16,0,.23-.04.08-.12.14-.22.16Zm-.8.61c-.06.04-.12.06-.18.05-.07-.01-.14-.06-.2-.14-.22-.3-.43-.6-.65-.9-.03-.04-.04-.09-.06-.13,0-.01,0-.02-.01-.03.02-.14.07-.22.18-.25.03-.01.06-.02.09-.02.08,0,.14.04.2.12.22.3.44.61.66.92.1.14.09.29-.03.38Zm-.85.53c-.01.06-.05.12-.1.16-.12.08-.26.05-.35-.07-.21-.28-.42-.58-.69-.96-.02-.03-.03-.07-.05-.11,0,0,0-.02,0-.03.02-.14.07-.22.17-.25.03-.01.06-.02.09-.02.08,0,.15.04.2.12l.05.07c.21.29.42.58.62.87.04.06.06.14.05.21Zm.85-6.2c.12-.08.24-.15.37-.23.04-.02.08-.05.12-.07.02.03.04.06.05.08l1.68,2.84c.1.17.2.34.3.5.02.03.02.05.02.05,0,0,0,.01-.04.03-.08.04-.17.09-.25.14l-.11.06c-.29.17-.48.12-.66-.17-.21-.35-.41-.7-.62-1.05l-.63-1.06c-.12-.2-.24-.4-.35-.6-.12-.21-.08-.41.11-.54Z"/>
      <path class="cls-1" d="m13.01,6.69s-.08,0-.11,0h-7.81s-.04,0-.04,0c-.01,0-.03,0-.04,0-.02,0-.05,0-.07,0-.18-.02-.29-.13-.3-.31-.01-.18.09-.3.27-.34.05-.01.1,0,.14,0h7.82s.03,0,.03,0c.04,0,.09,0,.15,0,.18.04.28.17.27.34,0,.18-.12.29-.3.31Z"/>
      <path class="cls-1" d="m12.97,5.18s-.05,0-.07,0h-7.83s-.03,0-.04,0c-.02,0-.04,0-.05,0-.05,0-.09,0-.13-.04-.1-.08-.2-.17-.2-.28,0-.11.1-.23.18-.3.05-.05.13-.04.2-.04.02,0,.03,0,.05,0h5.95c.65,0,1.3,0,1.95,0,.21,0,.35.13.36.32,0,.18-.14.32-.35.33Z"/>
      <path class="cls-1" d="m12.88,3.46c-.38,0-.76,0-1.14,0h-.38s-2.25,0-2.25,0c-.31,0-.47-.11-.47-.32,0-.09.03-.16.08-.22.08-.08.2-.12.38-.12h3.75c.06,0,.13,0,.19.01.16.02.26.14.27.3,0,.16-.08.29-.24.33-.07.02-.14.02-.2.02Z"/>
    </g>
  </g>
</svg>