<?xml version="1.0" encoding="UTF-8"?>
<svg id="Layer_2" data-name="Layer 2" xmlns="http://www.w3.org/2000/svg" viewBox="0 0 23.21 19.24">
  <defs>
    <style>
      .cls-1 {
        fill: #ff0007;
        stroke-width: 0px;
      }
    </style>
  </defs>
  <g id="Layer_1-2" data-name="Layer 1">
    <g id="knyUYM">
      <g>
        <path class="cls-1" d="m.02,13.41c.04-1.58,1.36-3.05,2.94-3.19.97-.09,1.96-.03,2.94-.03.13,0,.26,0,.38.05.21.07.32.01.44-.18.6-.95,1.61-1.57,2.74-1.61,1.41-.04,2.82-.03,4.24,0,1.05.02,2.07.51,2.65,1.38.24.35.42.43.82.4.95-.07,1.9-.09,2.85-.03,1.36.08,2.34.79,2.91,2.02.14.31.2.66.29.99v3.71c0,.38-.31.69-.69.69h0c-.38,0-.7-.31-.69-.69,0-.76,0-2,0-2.88,0-1.22-.43-2.13-1.52-2.43-.18-.05-.37-.07-.56-.07-.73,0-1.46,0-2.2,0-.54,0-.54.01-.54.54,0,1.83,0,3.67,0,5.5v.99c0,.37-.3.68-.68.68,0,0,0,0-.01,0-.37,0-.68-.3-.68-.68,0-.44,0-.87,0-.9,0-1.91,0-3.82,0-5.73,0-.87-.36-1.54-1.15-1.92-.29-.14-.64-.2-.96-.21-1.29-.02-2.58-.02-3.87,0-1.22,0-2.09.85-2.1,2.05-.02,1.97,0,3.94,0,5.91,0,.01,0,.4,0,.8,0,.37-.3.68-.68.68,0,0-.01,0-.02,0-.37,0-.68-.3-.68-.68v-6.96c-.11-.02-.22-.06-.33-.06-.89,0-1.78-.03-2.67.02-1,.05-1.82.92-1.83,2,0,.83.01,2.42.03,3.34,0,.39-.31.7-.69.7h0c-.38,0-.69-.3-.69-.69,0-.94-.01-2.62,0-3.51Z"/>
        <path class="cls-1" d="m15.64,4.03c0,2.22-1.81,4.04-4.03,4.04-2.21,0-4.04-1.81-4.04-4.03C7.57,1.81,9.38,0,11.6,0c2.22,0,4.03,1.8,4.04,4.03Zm-4.04-2.67c-1.48,0-2.67,1.2-2.67,2.68,0,1.46,1.2,2.66,2.67,2.67,1.47,0,2.68-1.2,2.68-2.68,0-1.48-1.2-2.68-2.68-2.67Z"/>
        <path class="cls-1" d="m19.45,9.4c-1.66-.01-3.01-1.37-3.01-3.02,0-1.66,1.38-3.03,3.04-3.02,1.67.02,3.01,1.37,3.01,3.02,0,1.67-1.38,3.03-3.04,3.02Zm-1.65-2.99c.04.93.81,1.67,1.69,1.63.92-.04,1.66-.81,1.63-1.69-.04-.93-.79-1.65-1.69-1.62-.92.03-1.67.8-1.63,1.68Z"/>
        <path class="cls-1" d="m3.8,3.36c1.68.05,3.02,1.41,2.98,3.05-.04,1.68-1.42,3.03-3.07,2.99-1.67-.04-3.02-1.43-2.98-3.05.05-1.69,1.42-3.03,3.06-2.98Zm-1.7,3.01c0,.9.75,1.66,1.66,1.66.9,0,1.66-.76,1.66-1.66,0-.9-.75-1.66-1.66-1.66-.91,0-1.66.74-1.66,1.65Z"/>
      </g>
    </g>
  </g>
</svg>