<?xml version="1.0" encoding="UTF-8"?>
<svg id="Layer_2" data-name="Layer 2" xmlns="http://www.w3.org/2000/svg" viewBox="0 0 6.86 6.83">
  <defs>
    <style>
      .cls-1 {
        fill: #ea1c24;
        stroke-width: 0px;
      }
    </style>
  </defs>
  <g id="Layer_1-2" data-name="Layer 1">
    <path class="cls-1" d="m3.43,0C1.54,0,0,1.54,0,3.43c0,1.7,1.24,3.11,2.87,3.4l.02-.02s0,0,0,0v-2.42h-.86v-.96h.86v-.75c0-.86.55-1.34,1.34-1.34.24,0,.51.03.75.07v.87h-.45c-.41,0-.51.21-.51.48v.67h.91l-.15.96h-.75v2.42s-.02,0-.03,0h.02c1.63-.28,2.87-1.69,2.87-3.38,0-1.89-1.54-3.43-3.43-3.43Z"/>
  </g>
</svg>