<?xml version="1.0" encoding="UTF-8"?>
<svg id="Layer_2" data-name="Layer 2" xmlns="http://www.w3.org/2000/svg" viewBox="0 0 7.43 7.43">
  <defs>
    <style>
      .cls-1 {
        fill: #ea1c24;
        stroke-width: 0px;
      }
    </style>
  </defs>
  <g id="Layer_1-2" data-name="Layer 1">
    <path class="cls-1" d="m3.91,5.97c0,.78-.74,1.05-1.41,1.05-.71,0-1.68-.33-1.68-1.19,0-.93,1.09-1.16,1.82-1.16.08,0,.15,0,.22,0,.46.32,1.04.67,1.04,1.29Zm-.54-3.85c0,.55-.21.99-.82.99-.8,0-1.24-1.06-1.24-1.74,0-.53.29-1.05.87-1.05.83,0,1.19,1.12,1.19,1.8Zm-.59-2.12c-.28,0-.56.03-.84.09C1.14.27.49.99.49,1.84c0,.9.75,1.54,1.62,1.54.1,0,.21,0,.31-.02-.04.14-.1.24-.1.38,0,.25.14.47.29.67-.8.02-2.04.23-2.44,1.03-.09.19-.17.39-.17.6,0,1.04,1.21,1.39,2.04,1.39.66,0,1.36-.14,1.88-.59.38-.33.63-.75.63-1.26,0-1.25-1.34-1.48-1.34-2.06s1-.68,1-1.86c0-.5-.22-1.04-.67-1.32h.6l.6-.35h-1.95Zm4.64,1.14h-1.14V0h-.57v1.14h-1.14v.57h1.14v1.14h.57v-1.14h1.14v-.57Z"/>
  </g>
</svg>