<?xml version="1.0" encoding="UTF-8"?>
<svg id="Layer_2" data-name="Layer 2" xmlns="http://www.w3.org/2000/svg" viewBox="0 0 7.82 7.36">
  <defs>
    <style>
      .cls-1 {
        fill: #ea1c24;
        stroke-width: 0px;
      }
    </style>
  </defs>
  <g id="Layer_1-2" data-name="Layer 1">
    <path class="cls-1" d="m0,5.74v-.12c.05-.06.1-.11.18-.12.64-.13,1.07-.54,1.39-1.07.27-.45.23-.55-.27-.73-.03-.01-.06-.02-.09-.03-.11-.04-.22-.09-.31-.17-.22-.2-.09-.48.17-.54.19-.05.36.08.55.1.13.02.18-.03.16-.16-.04-.34-.04-.69-.02-1.04.03-.66.36-1.16.9-1.49.8-.48,1.64-.48,2.45,0,.5.3.83.74.9,1.34.05.39.03.78,0,1.17-.01.17.02.2.19.16.21-.05.38-.16.6-.06.12.05.22.16.21.29,0,.09-.05.17-.12.22-.1.09-.23.14-.35.18-.09.04-.19.07-.28.11-.19.09-.24.21-.16.39.31.65.76,1.14,1.49,1.31.09.02.16.06.21.13v.12c-.07.14-.19.22-.33.27-.14.05-.29.11-.44.12-.21.01-.32.11-.36.33-.03.21-.09.24-.31.22-.05,0-.1-.01-.15-.02-.42-.07-.81-.03-1.15.25-.07.05-.14.1-.21.15-.59.38-1.19.42-1.8.07-.17-.1-.32-.21-.49-.32-.13-.09-.28-.14-.44-.16-.25-.04-.5.02-.74.05-.13.01-.25-.02-.26-.15-.02-.32-.21-.39-.48-.42-.12-.01-.25-.06-.36-.11-.13-.05-.24-.13-.3-.26Z"/>
  </g>
</svg>