<?xml version="1.0" encoding="UTF-8"?>
<svg id="Layer_2" data-name="Layer 2" xmlns="http://www.w3.org/2000/svg" viewBox="0 0 7.04 5.72">
  <defs>
    <style>
      .cls-1 {
        fill: #ea1c24;
        stroke-width: 0px;
      }
    </style>
  </defs>
  <g id="Layer_1-2" data-name="Layer 1">
    <path class="cls-1" d="m7.04.68c-.26.11-.54.19-.83.22.3-.18.53-.46.63-.8-.28.17-.59.29-.92.35-.26-.28-.64-.46-1.05-.46-.8,0-1.44.65-1.44,1.44,0,.11.01.22.04.33-1.2-.06-2.27-.63-2.98-1.51-.13.21-.2.46-.2.73,0,.5.25.94.64,1.2-.24,0-.46-.08-.65-.18v.02c0,.7.5,1.28,1.16,1.42-.12.03-.25.05-.38.05-.09,0-.18,0-.27-.02.18.57.71.99,1.35,1-.5.39-1.12.62-1.79.62-.12,0-.23,0-.35-.02.64.41,1.4.65,2.22.65,2.65,0,4.11-2.2,4.11-4.11,0-.06,0-.13,0-.19.28-.21.53-.46.72-.75Z"/>
  </g>
</svg>