<?xml version="1.0" encoding="UTF-8"?>
<svg id="Layer_2" data-name="Layer 2" xmlns="http://www.w3.org/2000/svg" viewBox="0 0 10.12 9.04">
  <defs>
    <style>
      .cls-1 {
        fill: #ecf6ef;
        stroke: #387e42;
        stroke-linecap: round;
        stroke-miterlimit: 10;
        stroke-width: .25px;
      }

      .cls-2 {
        fill: #333;
        stroke-width: 0px;
      }
    </style>
  </defs>
  <g id="Layer_1-2" data-name="Layer 1">
    <g>
      <path class="cls-1" d="m8.92,3.13v-.61C8.92,1.2,7.84.13,6.52.13h-4C1.2.13.13,1.2.13,2.52v4c0,1.32,1.07,2.4,2.4,2.4h4c1.32,0,2.4-1.07,2.4-2.4v-.9"/>
      <path class="cls-2" d="m3.17,6.35s-.02-.02-.02-.04c0-.02,0-.04.02-.05l.24-.32s.06-.03.09,0c.11.08.24.16.4.23.15.07.32.11.51.12v-1.54c-.39-.07-.68-.21-.87-.42-.19-.2-.29-.46-.29-.78,0-.18.03-.34.08-.49.06-.15.14-.28.24-.39.1-.11.23-.2.37-.26.14-.07.3-.11.47-.13v-.33s.02-.06.06-.06h.19s.06.02.06.06v.33c.18.02.36.05.52.11.16.06.31.13.44.21.03.03.03.06.01.09l-.21.32s-.06.04-.09.02c-.23-.13-.45-.21-.68-.24v1.48c.39.07.69.2.88.41.19.2.29.47.29.79,0,.36-.1.66-.31.89s-.49.37-.86.42v.34s-.02.06-.06.06h-.19s-.06-.02-.06-.06v-.32c-.24,0-.47-.05-.68-.13-.21-.08-.39-.18-.55-.3Zm1.23-3.57c-.19.03-.35.1-.46.23s-.17.29-.17.49c0,.18.05.33.14.44.09.12.26.2.5.26v-1.42Zm.32,3.48c.2-.03.36-.12.47-.25.11-.13.17-.31.17-.52,0-.18-.05-.32-.14-.44s-.26-.2-.5-.26v1.47Z"/>
      <g id="_6QwPJC" data-name="6QwPJC">
        <g>
          <path class="cls-2" d="m6.5,6.81s-.07-.04-.06-.08c.02-.12.05-.24.07-.36,0-.02,0-.04.01-.05,0-.01.01-.03.02-.04.24-.25,2.33-2.33,2.57-2.57.06-.06.12-.12.19-.19,0,0,.01,0,.02,0,.13.13.27.27.4.4,0,0,0,.01,0,.02-.31.31-2.45,2.45-2.76,2.76-.02.02-.04.02-.06.03-.06.01-.12.02-.18.04-.06.01-.12.02-.18.04-.02,0-.03,0-.04,0Z"/>
          <path class="cls-2" d="m9.81,3.13c.15,0,.26.09.3.21.03.11,0,.21-.07.3-.05.05-.1.1-.15.15,0,0-.01,0-.02,0-.13-.13-.27-.27-.4-.4,0,0,0-.01,0-.02.06-.05.11-.11.17-.17.06-.05.12-.08.18-.08Z"/>
        </g>
      </g>
    </g>
  </g>
</svg>