<?xml version="1.0" encoding="UTF-8"?>
<svg id="Layer_2" data-name="Layer 2" xmlns="http://www.w3.org/2000/svg" viewBox="0 0 15 10.83">
  <defs>
    <style>
      .cls-1 {
        fill: #fff;
        stroke-width: 0px;
      }
    </style>
  </defs>
  <g id="Layer_1-2" data-name="Layer 1">
    <path class="cls-1" d="m14.88.82c-.18-.4-.55-.68-1.02-.77-.54-.11-1.09-.02-1.68.26-.65.31-1.3.61-1.95.92-.58.27-1.17.55-1.75.82-.06.03-.09.03-.16,0-.99-.39-1.98-.78-2.98-1.17l-.29-.11c-.38-.15-.78-.31-1.18-.42-.35-.1-.66-.08-.92.06-.25.14-.43.39-.52.71-.09.34-.03.51.25.71l2.52,1.74-.19.09c-.38.18-.75.36-1.13.53-.02.01-.07.02-.11,0-.6-.15-1.19-.3-1.79-.45l-.73-.19c-.3-.08-.44-.01-.59.25L.02,4.99l-.02.28.05.04s.05.04.07.07c.06.06.13.12.22.16.44.19.88.37,1.32.55l.31.13-.08.04c-.28.13-.35.34-.22.62.14.31.29.61.43.92l.07.15c.06.14.14.27.28.32.14.05.28,0,.42-.07l4.03-1.88-.25,2.66c-.04.39-.08.79-.11,1.18,0,.13.04.31.15.4.22.18.49.28.75.28.04,0,.08,0,.12,0,.27-.03.5-.17.68-.41.15-.2.28-.46.38-.74.59-1.71,1.16-3.4,1.64-4.84.03-.09.07-.13.16-.17,1.11-.52,2.22-1.03,3.33-1.56.45-.21.8-.54,1.04-.95.25-.44.29-.92.1-1.34ZM6.06,3.16l-2.82-1.93c.05-.12.16-.17.31-.14.18.03.32.07.44.12,1.08.42,2.15.84,3.23,1.25l.19.07h-.02c-.46.22-.9.43-1.33.62Zm4.4-.2c-.1-.04-.2-.03-.29.01-.11.05-.19.16-.24.3l-.58,1.74c-.49,1.45-.97,2.89-1.46,4.34-.07.21-.19.41-.33.63-.01.02-.06.04-.12.05-.05,0-.08,0-.08,0,0,0,0-.04,0-.09l.49-5.13s0-.06,0-.09c0-.25-.15-.43-.37-.44,0,0-.02,0-.03,0-.21,0-.37.16-.4.39-.03.23-.05.45-.06.68,0,.04,0,.04-.03.06-1.15.53-2.3,1.07-3.46,1.61l-.73.34-.24-.51.14-.07c.13-.06.26-.12.39-.18.08-.03.31-.14.3-.41,0-.26-.23-.35-.32-.39-.59-.24-1.19-.49-1.78-.74l-.29-.12c.11-.19.21-.38.32-.56,0,0,0,0,0,0h0c.8.19,1.6.39,2.4.59.18.04.34.03.51-.05,1.5-.71,3.01-1.41,4.52-2.11l3.81-1.78c.45-.21.84-.27,1.22-.18.19.04.34.15.41.3.07.15.07.33-.02.51-.16.33-.43.59-.83.78-.68.32-1.36.64-2.04.96l-.61.29.05-.15c.09-.28,0-.49-.23-.57Z"/>
  </g>
</svg>