<?xml version="1.0" encoding="UTF-8"?>
<svg id="Layer_2" data-name="Layer 2" xmlns="http://www.w3.org/2000/svg" viewBox="0 0 7.73 8.82">
  <defs>
    <style>
      .cls-1 {
        fill: #b1b0b5;
        stroke-width: 0px;
      }
    </style>
  </defs>
  <g id="Layer_1-2" data-name="Layer 1">
    <g>
      <path class="cls-1" d="m.09,4.16c-.25,1.23.04,2.35.85,3.31.65.77,1.5,1.22,2.5,1.32,1.93.21,3.65-.99,4.15-2.79.45-1.63-.15-3.25-1.53-4.23-.03-.02-.08-.03-.07-.08.01-.06.06-.02.09-.02.07-.01.08-.09.12-.14.11-.17.11-.17-.06-.28-.1-.07-.21-.13-.31-.2-.06-.04-.1-.03-.13.03-.04.06-.07.12-.11.18-.02.04-.04.07,0,.11.03.03.02.05,0,.07-.03.03-.05.02-.08,0-.33-.16-.68-.26-1.05-.31-.05,0-.06-.04-.06-.08,0-.07-.01-.17.08-.18.13-.02.14-.1.14-.2,0-.17,0-.35,0-.52,0-.1-.04-.15-.14-.15-.39,0-.78,0-1.17,0-.1,0-.15.04-.15.15,0,.19,0,.39,0,.58,0,.07.02.13.11.14.12.02.09.11.1.19,0,.1-.06.08-.11.09-.34.05-.66.17-.97.29h0s-.07.07-.1,0c0-.02,0-.03,0-.05,0-.03.02-.07.02-.1-.01-.02-.02-.03-.03-.05-.01-.02-.02-.03-.03-.05q-.13-.18-.32-.06c-.09.06-.19.12-.28.18-.06.03-.08.07-.04.13.04.06.08.13.12.19.02.02.03.06.07.05.04-.01.08-.02.09.03.01.04-.04.05-.06.07C.84,2.36.29,3.15.09,4.16Zm.7.24c.12-.65.4-1.21.89-1.66,0-.04.04-.06.07-.08h0s0,0,0,0h0s.03-.04.05-.05h0s.06-.07.1-.09c.83-.66,1.76-.86,2.77-.59,1.74.46,2.71,2.27,2.16,3.99-.23.71-.66,1.27-1.3,1.67-.02.02-.04.04-.07.05-.02,0-.03.02-.05.03,0,.01-.02.02-.03.02l-.09.05s-.07.05-.12.06c-.03.03-.06.04-.1.04-.02.01-.04.02-.07.03-.89.33-1.77.29-2.61-.15-1.19-.62-1.85-1.99-1.6-3.31Z"/>
      <path class="cls-1" d="m3.75,2.27c.1,0,.12.02.12.12,0,.81,0,1.62,0,2.42,0,.1.02.13.13.13.41,0,.82,0,1.22,0s.83,0,1.25,0c.08,0,.1.02.1.1,0,.16-.02.31-.06.46-.31,1.5-1.83,2.49-3.38,2.04-1.45-.42-2.25-1.9-1.83-3.36.31-1.09,1.36-1.9,2.46-1.92Z"/>
    </g>
  </g>
</svg>