<?xml version="1.0" encoding="UTF-8"?>
<svg id="Layer_2" data-name="Layer 2" xmlns="http://www.w3.org/2000/svg" viewBox="0 0 10.13 9.04">
  <defs>
    <style>
      .cls-1 {
        fill: none;
        stroke: #8d8f92;
        stroke-linecap: round;
        stroke-miterlimit: 10;
        stroke-width: .25px;
      }

      .cls-2 {
        fill: #8d8f92;
      }

      .cls-2, .cls-3 {
        stroke-width: 0px;
      }

      .cls-3 {
        fill: #f5f3f3;
      }
    </style>
  </defs>
  <g id="Layer_1-2" data-name="Layer 1">
    <g>
      <g>
        <path class="cls-3" d="m1.21,4.87v-2.35C1.21,1.2,2.28.13,3.61.13h4c1.32,0,2.4,1.07,2.4,2.4v4c0,1.32-1.07,2.4-2.4,2.4h-4c-1.32,0-2.4-1.07-2.4-2.4"/>
        <g>
          <path class="cls-1" d="m1.21,3.34v-.81C1.21,1.2,2.28.13,3.61.13h4c1.32,0,2.4,1.07,2.4,2.4v4c0,1.32-1.07,2.4-2.4,2.4h-4c-1.32,0-2.4-1.07-2.4-2.4"/>
          <path class="cls-2" d="m1.21,4.87c.27-.72.73-1.62,1.21-2.17l-1.21.44-1.21-.44c.48.56.94,1.45,1.21,2.17Z"/>
        </g>
      </g>
      <path class="cls-2" d="m4.25,6.31s-.02-.02-.02-.04c0-.02,0-.04.02-.05l.24-.32s.06-.03.09,0c.11.08.24.16.4.23.15.07.32.11.51.12v-1.54c-.39-.07-.68-.21-.87-.42-.19-.2-.29-.46-.29-.78,0-.18.03-.34.08-.49.06-.15.14-.28.24-.39.1-.11.23-.2.37-.26.14-.07.3-.11.47-.13v-.33s.02-.06.06-.06h.19s.06.02.06.06v.33c.18.02.36.05.52.11.16.06.31.13.44.21.03.03.03.06.01.09l-.21.32s-.06.04-.09.02c-.23-.13-.45-.21-.68-.24v1.48c.39.07.69.2.88.41.19.2.29.47.29.79,0,.36-.1.66-.31.89s-.49.37-.86.42v.34s-.02.06-.06.06h-.19s-.06-.02-.06-.06v-.32c-.24,0-.47-.05-.68-.13-.21-.08-.39-.18-.55-.3Zm1.23-3.57c-.19.03-.35.1-.46.23s-.17.29-.17.49c0,.18.05.33.14.44.09.12.26.2.5.26v-1.42Zm.32,3.48c.2-.03.36-.12.47-.25.11-.13.17-.31.17-.52,0-.18-.05-.32-.14-.44s-.26-.2-.5-.26v1.47Z"/>
      <rect class="cls-2" x="2.79" y="4.5" width="1.18" height=".32" rx=".06" ry=".06"/>
    </g>
  </g>
</svg>