<?xml version="1.0" encoding="UTF-8"?>
<svg id="Layer_2" data-name="Layer 2" xmlns="http://www.w3.org/2000/svg" viewBox="0 0 8.09 9.1">
  <defs>
    <style>
      .cls-1 {
        fill: #fff;
        stroke-width: 0px;
      }
    </style>
  </defs>
  <g id="Layer_1-2" data-name="Layer 1">
    <g>
      <path class="cls-1" d="m6.42,8.95l1.52-1.52-.71-.71-1.52,1.52.71.71Zm-2.23-1.52l1.52,1.52.71-.71-1.52-1.52-.71.71Zm3.75,0c.2-.2.2-.52,0-.71-.2-.2-.52-.2-.71,0l.71.71Zm-1.87,1.16l-.36.36c.2.2.52.2.71,0l-.36-.36Zm-1.16-1.87c-.2-.2-.52-.2-.71,0-.2.2-.2.52,0,.71l.71-.71Z"/>
      <path class="cls-1" d="m2.53,8.59V.51h-1.01v8.09h1.01Zm4.04,0V.51h-1.01v8.09h1.01ZM5.56.51v8.09h1.01V.51h-1.01Zm-3.03,0c0-.28-.23-.51-.51-.51s-.51.23-.51.51h1.01Zm-1.01,8.09c0,.28.23.51.51.51s.51-.23.51-.51h-1.01Zm4.04,0c0,.28.23.51.51.51s.51-.23.51-.51h-1.01ZM6.57.51c0-.28-.23-.51-.51-.51s-.51.23-.51.51h1.01Z"/>
      <path class="cls-1" d="m1.66.15L.15,1.66l.71.71,1.52-1.52L1.66.15Zm2.23,1.52L2.38.15l-.71.71,1.52,1.52.71-.71ZM.15,1.66c-.2.2-.2.52,0,.71.2.2.52.2.71,0L.15,1.66Zm1.87-1.16l.36-.36c-.2-.2-.52-.2-.71,0l.36.36Zm1.16,1.87c.2.2.52.2.71,0,.2-.2.2-.52,0-.71l-.71.71Z"/>
    </g>
  </g>
</svg>