<?xml version="1.0" encoding="UTF-8"?>
<svg id="Layer_2" data-name="Layer 2" xmlns="http://www.w3.org/2000/svg" viewBox="0 0 13.89 13.89">
  <defs>
    <style>
      .cls-1 {
        fill: #fff;
        stroke-width: 0px;
      }
    </style>
  </defs>
  <g id="Layer_1-2" data-name="Layer 1">
    <g>
      <path class="cls-1" d="m6.94,0C3.11,0,0,3.11,0,6.94s3.11,6.94,6.94,6.94,6.94-3.11,6.94-6.94S10.78,0,6.94,0Zm.52,12.82v-.47c0-.29-.23-.52-.52-.52s-.52.23-.52.52v.47c-2.84-.25-5.1-2.52-5.35-5.36h.45c.29,0,.52-.23.52-.52s-.23-.52-.52-.52h-.45C1.33,3.58,3.59,1.32,6.42,1.07v.43c0,.29.23.52.52.52s.52-.23.52-.52v-.43c2.83.25,5.09,2.51,5.35,5.33h-.45c-.29,0-.52.23-.52.52s.23.52.52.52h.45c-.24,2.84-2.51,5.11-5.35,5.36Z"/>
      <path class="cls-1" d="m10.07,3.56l-3.1,3.25s-.01,0-.02,0c-.04,0-.08,0-.11.01l-2.6-1.96c-.17-.13-.42-.1-.55.08-.13.17-.1.42.08.55l2.6,1.96c.03.3.28.54.59.54.33,0,.59-.26.59-.59,0-.02,0-.03,0-.05l3.1-3.25c.15-.16.14-.41-.01-.56-.16-.15-.41-.14-.56.01Z"/>
    </g>
  </g>
</svg>