<?xml version="1.0" encoding="UTF-8"?>
<svg id="Layer_2" data-name="Layer 2" xmlns="http://www.w3.org/2000/svg" xmlns:xlink="http://www.w3.org/1999/xlink" viewBox="0 0 28.39 28.39">
  <defs>
    <style>
      .cls-1 {
        fill: #ff0007;
      }

      .cls-1, .cls-2 {
        stroke-width: 0px;
      }

      .cls-3 {
        filter: url(#drop-shadow-1);
      }

      .cls-2 {
        fill: #f2f2f2;
      }
    </style>
    <filter id="drop-shadow-1" filterUnits="userSpaceOnUse">
      <feOffset dx="0" dy="0"/>
      <feGaussianBlur result="blur" stdDeviation="20"/>
      <feFlood flood-color="#000" flood-opacity=".4"/>
      <feComposite in2="blur" operator="in"/>
      <feComposite in="SourceGraphic"/>
    </filter>
  </defs>
  <g id="Layer_1-2" data-name="Layer 1">
    <g class="cls-3">
      <g>
        <rect class="cls-2" x="0" y="0" width="28.39" height="28.39" rx="8.92" ry="8.92"/>
        <path class="cls-1" d="m20.21,11.69c-.09.07-1.71.98-1.71,3.01,0,2.34,2.06,3.17,2.12,3.19,0,.05-.33,1.13-1.08,2.24-.68.97-1.38,1.94-2.45,1.94-1.07,0-1.35-.62-2.59-.62s-1.64.64-2.62.64-1.67-.9-2.45-2c-.91-1.3-1.65-3.31-1.65-5.22,0-3.07,1.99-4.69,3.96-4.69,1.04,0,1.91.68,2.57.68s1.6-.73,2.78-.73c.45,0,2.07.04,3.13,1.57h0Zm-3.69-2.86c.49-.58.84-1.39.84-2.2,0-.11,0-.23-.03-.32-.8.03-1.75.53-2.32,1.2-.45.51-.87,1.32-.87,2.14,0,.12.02.25.03.29.05,0,.13.02.21.02.72,0,1.62-.48,2.14-1.12h0Z"/>
      </g>
    </g>
  </g>
</svg>