<?xml version="1.0" encoding="UTF-8"?>
<svg id="Layer_2" data-name="Layer 2" xmlns="http://www.w3.org/2000/svg" xmlns:xlink="http://www.w3.org/1999/xlink" viewBox="0 0 28.39 28.39">
  <defs>
    <style>
      .cls-1 {
        fill: #ff0007;
      }

      .cls-1, .cls-2 {
        stroke-width: 0px;
      }

      .cls-3 {
        filter: url(#drop-shadow-1);
      }

      .cls-2 {
        fill: #f2f2f2;
      }
    </style>
    <filter id="drop-shadow-1" filterUnits="userSpaceOnUse">
      <feOffset dx="0" dy="0"/>
      <feGaussianBlur result="blur" stdDeviation="20"/>
      <feFlood flood-color="#000" flood-opacity=".4"/>
      <feComposite in2="blur" operator="in"/>
      <feComposite in="SourceGraphic"/>
    </filter>
  </defs>
  <g id="Layer_1-2" data-name="Layer 1">
    <g class="cls-3">
      <g>
        <rect class="cls-2" x="0" y="0" width="28.39" height="28.39" rx="8.92" ry="8.92"/>
        <g>
          <path class="cls-1" d="m14.36,12.83v3.11h4.33c-.19,1-.76,1.85-1.62,2.42l2.61,2.02c1.52-1.4,2.4-3.46,2.4-5.91,0-.57-.05-1.12-.15-1.64h-7.57Z"/>
          <path class="cls-1" d="m9.85,15.82l-.59.45-2.08,1.62h0c1.32,2.62,4.03,4.44,7.18,4.44,2.17,0,3.99-.72,5.32-1.94l-2.61-2.02c-.72.48-1.63.77-2.71.77-2.09,0-3.87-1.41-4.5-3.31h0Z"/>
          <path class="cls-1" d="m7.18,10.69c-.55,1.08-.86,2.3-.86,3.6s.31,2.52.86,3.6c0,0,2.68-2.08,2.68-2.08-.16-.48-.26-.99-.26-1.53s.1-1.05.26-1.53l-2.68-2.08Z"/>
          <path class="cls-1" d="m14.36,9.46c1.18,0,2.24.41,3.08,1.2l2.3-2.3c-1.4-1.3-3.21-2.1-5.38-2.1-3.14,0-5.85,1.81-7.18,4.44l2.67,2.08c.64-1.9,2.41-3.31,4.5-3.31h0Z"/>
        </g>
      </g>
    </g>
  </g>
</svg>