<?xml version="1.0" encoding="UTF-8"?>
<svg id="Layer_2" data-name="Layer 2" xmlns="http://www.w3.org/2000/svg" xmlns:xlink="http://www.w3.org/1999/xlink" viewBox="0 0 28.39 28.39">
  <defs>
    <style>
      .cls-1 {
        fill: #ff0007;
      }

      .cls-1, .cls-2 {
        stroke-width: 0px;
      }

      .cls-3 {
        filter: url(#drop-shadow-1);
      }

      .cls-2 {
        fill: #f2f2f2;
      }
    </style>
    <filter id="drop-shadow-1" filterUnits="userSpaceOnUse">
      <feOffset dx="0" dy="0"/>
      <feGaussianBlur result="blur" stdDeviation="20"/>
      <feFlood flood-color="#000" flood-opacity=".4"/>
      <feComposite in2="blur" operator="in"/>
      <feComposite in="SourceGraphic"/>
    </filter>
  </defs>
  <g id="Layer_1-2" data-name="Layer 1">
    <g class="cls-3">
      <g>
        <rect class="cls-2" x="0" y="0" width="28.39" height="28.39" rx="8.92" ry="8.92"/>
        <path class="cls-1" d="m22.73,9.4c-.49.22-1.04.36-1.58.45.25-.04.63-.5.78-.69.23-.28.42-.61.52-.95.01-.03.02-.06,0-.08-.03-.01-.06,0-.08,0-.6.32-1.21.55-1.87.72-.05.01-.09,0-.13-.03-.05-.06-.11-.12-.16-.17-.28-.23-.57-.42-.91-.55-.44-.18-.92-.25-1.39-.22-.46.03-.91.16-1.32.37-.41.21-.77.51-1.06.87-.3.37-.52.81-.63,1.27-.11.45-.1.89-.03,1.34.01.07,0,.09-.06.07-2.57-.38-4.7-1.3-6.42-3.27-.07-.09-.12-.09-.18,0-.76,1.13-.39,2.95.56,3.85.13.12.26.24.39.35-.05.01-.68-.06-1.24-.35-.07-.05-.11-.02-.12.06,0,.12,0,.24.02.37.15,1.15.94,2.21,2.03,2.63.13.05.27.1.41.13-.25.05-.5.09-1.22.04-.09-.02-.12.03-.09.11.53,1.46,1.69,1.89,2.55,2.14.12.02.23.02.35.05,0,.01-.01.01-.02.02-.29.44-1.28.76-1.74.92-.84.29-1.76.43-2.65.34-.14-.02-.17-.02-.21,0-.04.02,0,.06.04.1.18.12.36.22.55.33.57.3,1.15.54,1.77.71,3.18.88,6.77.23,9.16-2.14,1.88-1.86,2.53-4.44,2.53-7.01,0-.1.12-.16.19-.21.49-.37.88-.81,1.25-1.3.08-.11.08-.21.08-.25h0c0-.05,0-.04-.06-.01Z"/>
      </g>
    </g>
  </g>
</svg>