<?xml version="1.0" encoding="UTF-8"?>
<svg id="Layer_2" data-name="Layer 2" xmlns="http://www.w3.org/2000/svg" viewBox="0 0 7.15 17.6">
  <defs>
    <style>
      .cls-1 {
        fill: #ff0007;
        stroke-width: 0px;
      }
    </style>
  </defs>
  <g id="Layer_1-2" data-name="Layer 1">
    <g>
      <path class="cls-1" d="m1.42,2.52c.16.87.64,1.45,1.45,1.73.8.28,1.55.12,2.21-.47.44-.4.69-.99.68-1.62-.01-.64-.28-1.22-.75-1.61-.3-.25-.67-.43-1.15-.54h-.56s-.03,0-.04.01c-.03.01-.06.02-.09.03-1.14.22-1.94,1.35-1.74,2.47ZM3.58.53h0c.91,0,1.66.75,1.66,1.66,0,.44-.17.86-.49,1.17-.31.31-.73.48-1.17.48s-.86-.17-1.17-.49c-.31-.31-.49-.73-.49-1.17s.17-.86.49-1.17.73-.49,1.17-.49Z"/>
      <path class="cls-1" d="m7.15,9.75q0-.42,0-.74v-.67c0-.08,0-.17-.03-.25-.02-.07-.06-.13-.12-.15-.04-.02-.09-.02-.14,0-.09.03-.17.13-.24.23-.01.02,0,.07,0,.11,0,.02,0,.04,0,.06v1.45c0,.19,0,.38,0,.58,0,.26-.14.32-.26.32-.17,0-.34,0-.51,0-.07,0-.15,0-.23,0h-.05v-1.23c0-.72,0-.85,0-2.12,0-.09,0-.19-.03-.27-.02-.07-.06-.13-.12-.15-.04-.02-.09-.03-.14,0-.08.03-.16.11-.23.23-.02.04-.02.1-.01.16,0,.03,0,.05,0,.08v9.19c0,.06,0,.12,0,.19,0,.11-.03.19-.08.24-.05.05-.12.07-.22.07-.06,0-.11,0-.16,0-.05,0-.1,0-.15,0h-.15c-.41,0-.45-.04-.45-.44v-1.52c0-1.01,0-2.03,0-3.04,0-.37-.13-.42-.26-.43,0,0,0,0-.01,0-.07,0-.12.02-.16.05-.06.06-.1.19-.1.37,0,1.01,0,2.02,0,3.03v1.55c0,.05,0,.1,0,.15-.01.18-.11.27-.29.27-.21,0-.43,0-.64,0-.17,0-.27-.1-.29-.27,0-.06,0-.12,0-.18v-.05c0-4.21,0-4.98,0-9.19,0-.03,0-.05,0-.08,0-.07,0-.14-.02-.18-.06-.09-.16-.19-.23-.2h0c-.07,0-.18.09-.25.18-.03.04-.03.12-.02.19,0,.02,0,.04,0,.06v.64q0,.98,0,2.4v.31s-.26,0-.26,0c-.13,0-.26,0-.38,0-.33,0-.4-.07-.4-.41v-1.02c0-.51,0-.67,0-1.77,0-.17,0-.34.03-.54.08-.91.83-1.64,1.71-1.67.89-.03,1.8-.01,2.64,0,.26,0,.5.1.67.18.64.32,1,.87,1.06,1.64.02.2.11.31.28.3.16-.01.25-.14.25-.35-.04-1.23-1.06-2.27-2.27-2.3-.61-.02-1.23-.01-1.83,0-.26,0-.52,0-.79,0-.07,0-.14,0-.22.02C.81,4.98,0,5.95,0,7.23c0,1.22,0,1.41,0,2.06v1.02c0,.58.31.89.9.89.13,0,.27,0,.41,0h.22s.05,0,.05,0v.34c0,2.17,0,2.87,0,5.04,0,.12,0,.22.02.32.05.34.24.57.53.61.47.08.93.14,1.36-.08.03-.01.11-.04.16-.01.23.16.49.15.76.14.07,0,.14-.01.22,0,0,0,.02,0,.03,0,.32,0,.55-.07.7-.22.15-.15.23-.39.23-.73v-5.41s.64,0,.64,0c.64,0,.93-.29.93-.92v-.54Z"/>
    </g>
  </g>
</svg>