<?xml version="1.0" encoding="UTF-8"?>
<svg id="Layer_2" data-name="Layer 2" xmlns="http://www.w3.org/2000/svg" viewBox="0 0 8.53 13.44">
  <defs>
    <style>
      .cls-1 {
        fill: #ff0007;
        stroke-width: 0px;
      }
    </style>
  </defs>
  <g id="Layer_1-2" data-name="Layer 1">
    <g>
      <path class="cls-1" d="m8.42,2.87c-.15-.3-.42-.49-.74-.55-.32-.05-.65.06-.9.31-.46.47-.9.94-1.42,1.51-.14.16-.3.23-.52.23h-.03c-.37-.01-.74-.01-1.11,0h-.03c-.21,0-.37-.07-.52-.23-.3-.33-.61-.66-.91-.98l-.47-.5c-.22-.24-.48-.36-.75-.36-.09,0-.18.01-.28.04-.34.09-.61.34-.71.67-.1.34-.02.71.23,1,.28.31.57.63.86.93l.05.05c.24.25.51.54.76.82.12.13.2.34.2.51,0,1.13,0,2.55,0,3.91,0,.75,0,1.48,0,2.12,0,.7.39,1.09,1.09,1.1.67,0,1.35,0,2.02,0,.71,0,1.11-.39,1.11-1.1,0-.73,0-1.44,0-2.06h-.58c0,.68,0,1.37,0,2.04,0,.12,0,.48-.36.52-.18.02-.35.01-.53,0-.07,0-.15,0-.23,0h-.13s0-3.48,0-3.48c0-.22-.04-.37-.12-.44-.04-.04-.1-.06-.18-.06-.11,0-.29,0-.29.49v3.5s-.61,0-.61,0c-.5,0-.61-.11-.61-.61v-1.43c0-1.46,0-3.29,0-4.65,0-.27-.07-.46-.25-.64-.4-.41-.81-.85-1.16-1.22l-.58-.62c-.12-.13-.18-.25-.17-.37,0-.11.06-.2.15-.29.09-.08.34-.24.63.08l.49.52c.35.38.71.76,1.08,1.13.12.11.31.2.48.21.58.03,1.15.03,1.69,0,.16,0,.37-.1.48-.21.33-.33.66-.68.97-1.01.13-.14.25-.27.38-.41.02-.02.04-.05.06-.07.07-.09.14-.17.24-.22.11-.05.36-.12.52-.02.1.06.16.14.18.24.02.12-.02.26-.12.38-.03.04-.07.08-.1.12l-.45.48c-.44.46-.87.92-1.27,1.37-.09.1-.18.24-.18.35-.02.57-.01,1.72-.01,2.34v.91h.58s.01-2.35,0-2.84c0-.23.07-.42.24-.6.48-.5,1-1.05,1.6-1.7.33-.36.4-.8.21-1.19Z"/>
      <path class="cls-1" d="m4.23,3.46h0s.01,0,.02,0c.43,0,.86-.18,1.19-.5.34-.33.53-.78.53-1.23,0-.94-.77-1.71-1.72-1.73-.01,0-.02,0-.03,0h0c-.43,0-.85.18-1.18.49-.34.33-.53.78-.53,1.24,0,.94.77,1.71,1.71,1.73Zm0-2.87h.04c.31.01.61.15.82.38.21.23.31.51.3.81-.03.61-.54,1.1-1.14,1.1h-.04c-.31-.01-.6-.15-.81-.38-.21-.23-.32-.51-.3-.81.03-.61.53-1.1,1.13-1.1Z"/>
    </g>
  </g>
</svg>