<?xml version="1.0" encoding="UTF-8"?>
<svg id="Layer_2" data-name="Layer 2" xmlns="http://www.w3.org/2000/svg" viewBox="0 0 11.74 10.77">
  <defs>
    <style>
      .cls-1 {
        fill: #ff0007;
        stroke-width: 0px;
      }
    </style>
  </defs>
  <g id="Layer_1-2" data-name="Layer 1">
    <g>
      <path class="cls-1" d="m11.46,5.09c-.21-.25-.47-.4-.76-.44-.07-.01-.1-.04-.12-.11-.44-1.47-1.38-2.54-2.79-3.17-.06-.03-.09-.06-.11-.12-.3-.71-.83-1.12-1.58-1.23h-.02s-.36-.02-.36-.02l-.07.02c-.73.1-1.26.5-1.56,1.18-.04.1-.1.16-.2.2-1.33.6-2.23,1.62-2.68,3.01-.05.15-.1.23-.27.26C.35,4.8-.03,5.33,0,5.96c.03.57.44,1.03,1.01,1.14.1.02.13.05.16.14.34,1.15,1.02,2.07,2.01,2.73,1.12.74,2.37.98,3.72.69,1.06-.22,1.96-.76,2.69-1.6.47-.54.81-1.17.99-1.85.02-.06.04-.09.12-.1.31-.05.57-.2.78-.46.13-.16.19-.36.25-.54v-.04s.02-.36.02-.36h0c-.07-.24-.13-.44-.28-.62ZM.99,6.52l-.08-.04c-.2-.1-.34-.34-.35-.59,0-.26.13-.51.35-.62l.08-.04v1.28ZM5.34.67c.16-.07.34-.11.53-.11.42,0,.82.18,1.05.48l.06.07h-.09c-.5.08-.87.33-1.1.77-.23.43-.22.88.01,1.34l.04.08h-.09c-.44-.02-1.01-.37-1.19-.98-.19-.67.14-1.38.79-1.65Zm4.42,7.11c-.46.94-1.19,1.64-2.17,2.07-.55.24-1.11.36-1.7.36-.17,0-.35,0-.52-.03-1.2-.15-2.19-.71-2.93-1.66-.55-.7-.85-1.48-.89-2.32-.09-1.83.69-3.24,2.31-4.17l.07-.04.02.11c.01.1.03.19.04.28v.02s-.01.02-.01.02c0,0-.02.02-.04.03h0c-.06.05-.13.1-.19.14l-.08.06c-.16.11-.32.23-.48.36-.09.07-.16.15-.24.24l-.06.06c-.12.14-.12.3,0,.42.05.05.12.07.2.07.08,0,.15-.04.22-.11.27-.3.55-.53.86-.72l.04-.02.04.05c.05.07.1.14.15.2.5.59,1.3.82,2.04.59.05-.02.22-.06.25-.24.02-.14-.06-.23-.15-.3-.38-.29-.47-.74-.24-1.14.14-.25.37-.39.68-.42h.02s0,0,0,0c0,0,.02,0,.03,0,1.34.39,2.29,1.23,2.83,2.49.51,1.2.48,2.41-.1,3.59Zm1.07-1.31l-.08.04v-1.28s.08.04.08.04c.2.1.34.34.35.59,0,.26-.13.51-.35.62Z"/>
      <path class="cls-1" d="m5.04,6.16v-.02s-.02-.02-.02-.05c-.03-.07-.05-.14-.1-.21-.2-.32-.49-.48-.85-.48-.04,0-.08,0-.12,0-.39.04-.74.34-.84.72-.04.16.02.29.17.35h0c.13.05.28-.01.35-.16,0-.01,0-.02.01-.03v-.02s.01-.02.02-.03c.09-.18.23-.28.42-.28s.33.09.41.27c0,.02.01.03.02.04,0,.02.02.05.03.07.06.11.19.16.31.13.13-.03.2-.15.2-.32Z"/>
      <path class="cls-1" d="m7.25,6.26c.07-.19.2-.29.39-.3h.04c.2,0,.34.11.42.32.07.17.16.21.23.21.12,0,.22-.05.28-.12.05-.06.06-.15.03-.22-.06-.18-.13-.31-.22-.41-.25-.29-.57-.39-.96-.32-.37.08-.63.32-.75.68-.04.1-.02.21.04.29.05.07.13.1.21.1,0,0,.01,0,.02,0,.16-.01.22-.13.26-.23Z"/>
      <path class="cls-1" d="m6.66,7.83c-.15-.05-.29.02-.36.2-.05.12-.17.33-.41.33h-.02c-.21-.01-.35-.12-.43-.32-.03-.09-.08-.15-.15-.19-.04-.02-.07-.03-.11-.03-.03,0-.07,0-.1.02-.16.06-.22.21-.16.4.14.41.51.68.95.68.44,0,.82-.28.96-.69.06-.18,0-.33-.16-.39Z"/>
    </g>
  </g>
</svg>