<?xml version="1.0" encoding="UTF-8"?>
<svg id="Layer_2" data-name="Layer 2" xmlns="http://www.w3.org/2000/svg" viewBox="0 0 28 28">
  <defs>
    <style>
      .cls-1, .cls-2 {
        stroke-width: 0px;
      }

      .cls-2 {
        fill: #fff;
      }
    </style>
  </defs>
  <g id="Layer_1-2" data-name="Layer 1">
    <g>
      <rect class="cls-1" x="0" y="0" width="28" height="28" rx="6" ry="6"/>
      <path class="cls-2" d="m8.17,13h4.83s0-4.83,0-4.83c0-.55.45-1,1-1s1,.45,1,1v4.83s4.83,0,4.83,0c.55,0,1,.45,1,1,0,.55-.45,1-1,1h-4.83s0,4.83,0,4.83c0,.55-.45,1-1,1s-1-.45-1-1v-4.83s-4.83,0-4.83,0c-.55,0-1-.45-1-1,0-.55.45-1,1-1Z"/>
    </g>
  </g>
</svg>