<?xml version="1.0" encoding="UTF-8"?>
<svg id="Layer_2" data-name="Layer 2" xmlns="http://www.w3.org/2000/svg" viewBox="0 0 15.24 16.06">
  <defs>
    <style>
      .cls-1 {
        fill: #162b53;
        stroke-width: 0px;
      }
    </style>
  </defs>
  <g id="Layer_1-2" data-name="Layer 1">
    <g>
      <path class="cls-1" d="m.39,4.58s.69-2.29,1.95-3.41C3.6.06,10.47-1.3,15.24,2.55c0,0-3.85-2.15-9.77-.6,0,0-2.97.75-5.08,2.64Z"/>
      <path class="cls-1" d="m9.6,4.24s.62-.91,1.79-1.31c1.17-.4,1.8-.17,1.8-.17,0,0,.15.32-.1.55,0,0-.75-.39-1.53-.2-.78.18-1.96,1.13-1.96,1.13Z"/>
      <path class="cls-1" d="m10.51,3.56s.43.5.87.55.76-.08.9-.47,0-.8,0-.8l-.25.17s.12.54-.13.76-.85.21-1.23-.36l-.15.16Z"/>
      <path class="cls-1" d="m.05,6S4.71.8,11.46,2.21c0,0-3.04-.09-7.06,2.38,0,0-2.9,1.85-4.23,4.24,0,0-.27-.86-.12-2.84Z"/>
      <path class="cls-1" d="m7.56,16.05c-1.48-.32-1.9-.55-1.9-.55.04-2.38.72-4.92.72-4.92.67-2.7,2.4-4.9,2.4-4.9.09.55.66,1.31.66,1.31,2.65-3.17,5.64-3.73,5.64-3.73,0,0-3.71,1.19-5.89,5.23,0,0-1.77,3.04-1.47,7.57,0,0-.14,0-.17-.01Z"/>
      <path class="cls-1" d="m.52,10.21c.89-1.91,2.18-3.3,2.18-3.3,3.12-3.57,6.99-3.94,6.99-3.94C3.1,5.93,1.64,12.37,1.64,12.37c0,0-.69-.95-.97-1.76l-.15-.41Z"/>
      <path class="cls-1" d="m2.56,13.47c.44-2.8,1.9-5.15,1.9-5.15,1.84-3.02,4.62-4.51,4.62-4.51,0,0-.44.65-.36,1.34,0,0-3.28,3.12-4.15,7.64,0,0-.19,1.33-.2,2.09,0,0-.96-.62-1.6-1.21l-.2-.2Z"/>
    </g>
  </g>
</svg>