<?xml version="1.0" encoding="UTF-8"?>
<svg id="Layer_2" data-name="Layer 2" xmlns="http://www.w3.org/2000/svg" viewBox="0 0 15.87 15.87">
  <defs>
    <style>
      .cls-1 {
        fill: #fff;
        stroke-width: 0px;
      }
    </style>
  </defs>
  <g id="Layer_1-2" data-name="Layer 1">
    <g id="SZ5rIq">
      <g>
        <path class="cls-1" d="m11.99,0c-.54.2-.61.3-.6.89,0,.1,0,.2,0,.29,0,.01,0,.03-.02.05-.93,0-1.86,0-2.81,0,0-.09,0-.18,0-.27,0-.13,0-.27-.01-.4-.03-.31-.26-.52-.56-.54-.28-.02-.56.2-.61.49-.03.18-.02.37-.03.56,0,.05,0,.1,0,.16-.95,0-1.88,0-2.85,0,0-.21.01-.42,0-.63-.03-.38-.29-.57-.58-.57-.3,0-.58.18-.61.56-.02.21,0,.42,0,.66-.17,0-.32,0-.46,0-.42.01-.84.02-1.23.18C.66,1.83.08,2.53.04,3.57-.02,4.77,0,5.98,0,7.18c0,.28.12.51.39.63.22.09.42.05.59-.09.2-.16.24-.38.25-.61,0-1.02,0-2.05,0-3.07,0-.28-.02-.57.11-.84.21-.43.57-.68,1.05-.71.29-.02.58,0,.89,0,0,.08,0,.15,0,.23,0,.17,0,.34.03.51.06.3.33.49.62.48.29-.01.53-.24.56-.55.02-.21,0-.43,0-.66.07,0,.11-.01.16-.01.85,0,1.69,0,2.54,0,.12,0,.16.03.16.16-.01.15-.01.31,0,.46.02.35.28.6.61.6.33,0,.58-.24.6-.59.01-.2,0-.41,0-.62.95,0,1.88,0,2.83,0,0,.17,0,.34,0,.51,0,.28.08.52.37.64.37.16.77-.06.83-.46.02-.14.02-.29.02-.43,0-.09,0-.17,0-.3.41.03.8.02,1.17.1.46.11.85.56.85,1.21,0,.81,0,1.62,0,2.43,0,2.37,0,4.74,0,7.11,0,.47-.17.85-.57,1.12-.21.14-.45.2-.7.2-1.49,0-2.99,0-4.48,0-.14,0-.29.02-.43.06-.24.07-.4.29-.4.55,0,.24.15.48.39.56.12.04.24.06.36.06,1.46,0,2.92,0,4.39,0,.94,0,1.72-.33,2.25-1.13.15-.22.24-.49.32-.75.04-.14,0-.3,0-.43.03.09.07.21.11.33,0-3.54,0-7.09,0-10.63-.02.06-.05.12-.07.17-.02-.15-.03-.3-.07-.45-.28-.95-1.17-1.65-2.17-1.71-.31-.02-.62-.03-.95-.05,0-.1,0-.19,0-.28.03-.45-.08-.82-.58-.94h-.03Z"/>
        <path class="cls-1" d="m7.47,12.07c.03,2.01-1.59,3.75-3.69,3.78-1.97.03-3.76-1.56-3.76-3.72,0-2.07,1.67-3.72,3.7-3.74,2,0,3.71,1.59,3.75,3.67Zm-3.72,2.57c1.41,0,2.5-1.1,2.51-2.52,0-1.37-1.13-2.53-2.58-2.5-1.35.03-2.44,1.14-2.44,2.53,0,1.39,1.11,2.5,2.51,2.5Z"/>
        <path class="cls-1" d="m8.68,11.91c0,.32.3.62.62.62.33,0,.63-.3.62-.63,0-.32-.31-.61-.63-.61-.32,0-.62.3-.61.62Z"/>
        <path class="cls-1" d="m9.89,9.2c0-.33-.3-.61-.61-.6-.33.01-.61.31-.6.64,0,.32.29.59.6.59.33,0,.61-.29.6-.62Z"/>
        <path class="cls-1" d="m9.29,5.9c-.31,0-.59.28-.6.61,0,.31.28.61.6.61.32,0,.6-.28.6-.6,0-.34-.27-.62-.6-.62Z"/>
        <path class="cls-1" d="m6.61,7.11c.33-.01.59-.29.58-.61,0-.32-.3-.6-.62-.59-.33,0-.59.29-.58.64.01.33.28.58.61.57Z"/>
        <path class="cls-1" d="m11.4,11.91c0,.33.28.6.62.59.32,0,.58-.28.58-.6,0-.32-.28-.59-.61-.59-.33,0-.6.27-.6.6Z"/>
        <path class="cls-1" d="m12.59,6.51c0-.34-.28-.62-.61-.62-.3,0-.58.3-.58.61,0,.32.28.6.6.6.32,0,.59-.28.59-.6Z"/>
        <path class="cls-1" d="m12.59,9.2c0-.33-.27-.59-.59-.59-.33,0-.6.27-.6.6,0,.31.28.6.59.61.32,0,.6-.29.6-.62Z"/>
        <path class="cls-1" d="m3.31,6.52c0,.33.28.6.61.59.32,0,.58-.28.58-.6,0-.32-.29-.61-.6-.61-.31,0-.59.29-.59.62Z"/>
        <path class="cls-1" d="m4.35,11.47c0-.2,0-.4,0-.6-.02-.36-.28-.62-.6-.62-.33,0-.59.27-.61.64,0,.15,0,.31,0,.46,0,.13-.02.17-.16.17-.39,0-.63.17-.72.49-.09.33.12.68.46.71.37.03.74.03,1.11,0,.29-.02.48-.25.5-.54.01-.23,0-.46,0-.7h0Z"/>
      </g>
    </g>
  </g>
</svg>