<?xml version="1.0" encoding="UTF-8"?>
<svg id="Layer_2" data-name="Layer 2" xmlns="http://www.w3.org/2000/svg" viewBox="0 0 16.59 16.59">
  <defs>
    <style>
      .cls-1 {
        fill: #ff0007;
      }

      .cls-1, .cls-2 {
        stroke-width: 0px;
      }

      .cls-2 {
        fill: #fff;
      }
    </style>
  </defs>
  <g id="Layer_1-2" data-name="Layer 1">
    <g>
      <circle class="cls-1" cx="8.29" cy="8.29" r="8.29"/>
      <g>
        <path class="cls-2" d="m4.73,9.21c.16-.16.42-.16.59,0l1.4,1.4v-5.63c0-.23.19-.41.41-.41s.41.19.41.41v6.64c0,.11-.05.22-.12.29h0s0,0,0,0c-.04.04-.08.07-.13.09-.1.04-.22.04-.32,0-.05-.02-.09-.05-.13-.09,0,0,0,0,0,0l-2.11-2.11c-.16-.16-.16-.42,0-.59Z"/>
        <path class="cls-2" d="m11.86,7.38c-.16.16-.42.16-.59,0l-1.4-1.4v5.63c0,.23-.19.41-.41.41s-.41-.19-.41-.41v-6.64c0-.11.05-.22.12-.29h0s0,0,0,0c.04-.04.08-.07.13-.09.1-.04.22-.04.32,0,.05.02.09.05.13.09,0,0,0,0,0,0l2.11,2.11c.16.16.16.42,0,.59Z"/>
      </g>
    </g>
  </g>
</svg>