<?xml version="1.0" encoding="UTF-8"?>
<svg id="Layer_2" data-name="Layer 2" xmlns="http://www.w3.org/2000/svg" viewBox="0 0 10.95 10.95">
  <defs>
    <style>
      .cls-1 {
        fill: #ff0007;
        stroke-width: 0px;
      }
    </style>
  </defs>
  <g id="Layer_1-2" data-name="Layer 1">
    <g>
      <path class="cls-1" d="m1.6,9.35h0C.57,8.31,0,6.94,0,5.48c0-1.46.57-2.84,1.6-3.87S4.01,0,5.47,0c1.46,0,2.84.57,3.87,1.6s1.6,2.41,1.6,3.87c0,1.46-.57,2.84-1.6,3.87s-2.41,1.6-3.87,1.6c-1.46,0-2.84-.57-3.87-1.6Zm.6-7.14c-.87.87-1.36,2.03-1.36,3.27,0,1.24.48,2.4,1.36,3.27h0c.87.87,2.03,1.35,3.27,1.35,1.24,0,2.4-.48,3.27-1.35.87-.87,1.36-2.03,1.36-3.27,0-1.24-.48-2.4-1.36-3.27-.87-.87-2.03-1.35-3.27-1.35-1.24,0-2.4.48-3.27,1.35Z"/>
      <path class="cls-1" d="m7.7,8.12c.11,0,.22-.04.3-.12.17-.17.17-.44,0-.6L3.56,2.96c-.17-.17-.44-.17-.6,0s-.17.44,0,.6l4.44,4.44c.08.08.19.12.3.12Z"/>
      <path class="cls-1" d="m3.26,8.12c.11,0,.22-.04.3-.12L8,3.56c.17-.17.17-.44,0-.6s-.44-.17-.6,0L2.96,7.39c-.17.17-.17.44,0,.6.08.08.19.12.3.12Z"/>
    </g>
  </g>
</svg>