<?xml version="1.0" encoding="UTF-8"?>
<svg id="Layer_2" data-name="Layer 2" xmlns="http://www.w3.org/2000/svg" viewBox="0 0 31.38 22.49">
  <defs>
    <style>
      .cls-1 {
        stroke-width: 0px;
      }
    </style>
  </defs>
  <g id="Layer_1-2" data-name="Layer 1">
    <g id="CtljM9">
      <path class="cls-1" d="m0,10.48c.47-.84.94-1.69,1.42-2.53.25-.45.42-.52.92-.4,1.79.45,3.58.91,5.37,1.36.14.03.31.03.44-.03,1.04-.48,2.07-.97,3.1-1.46.05-.03.1-.06.17-.1-.38-.26-.74-.51-1.1-.76-1.56-1.08-3.13-2.15-4.69-3.23-.5-.34-.58-.58-.42-1.17.35-1.26,1.33-1.84,2.68-1.45,1.05.31,2.07.73,3.1,1.13,2.12.82,4.24,1.65,6.35,2.49.21.08.37.08.58-.02,2.63-1.24,5.26-2.47,7.89-3.71,1.08-.51,2.2-.75,3.39-.52,1.94.38,2.77,2.3,1.76,4.05-.5.86-1.21,1.49-2.1,1.91-2.36,1.12-4.73,2.22-7.1,3.32-.26.12-.41.27-.5.55-1.15,3.44-2.31,6.88-3.49,10.32-.18.52-.43,1.05-.76,1.49-.78,1.04-2.01.93-2.86.24-.14-.12-.23-.4-.21-.59.09-1.15.21-2.3.32-3.45.16-1.71.32-3.41.49-5.12,0-.03-.01-.06-.02-.12-.13.06-.25.11-.36.16-2.89,1.35-5.79,2.7-8.68,4.05-.59.28-.8.2-1.08-.39-.35-.76-.71-1.52-1.06-2.28-.21-.45-.11-.7.33-.91.24-.11.48-.22.78-.36-.14-.06-.22-.1-.31-.14-1.26-.52-2.53-1.04-3.78-1.58C.35,11.14.18,10.94,0,10.79c0-.1,0-.2,0-.31Zm21.88-2.38c.08-.03.11-.04.14-.05,2.05-.96,4.1-1.92,6.15-2.89.83-.39,1.52-.95,1.92-1.81.46-.97,0-1.91-1.03-2.15-.98-.22-1.9,0-2.79.41-5.92,2.77-11.85,5.54-17.77,8.31-.29.14-.57.17-.88.09-1.7-.43-3.4-.85-5.11-1.26-.09-.02-.27,0-.3.06-.31.5-.59,1.02-.89,1.56.15.06.26.12.38.17,1.45.6,2.9,1.2,4.35,1.8.26.11.48.25.49.56,0,.31-.2.47-.46.58-.46.21-.92.43-1.41.66.26.56.51,1.09.77,1.63.08-.03.14-.05.19-.08,3.01-1.4,6.01-2.8,9.02-4.2.18-.08.23-.19.24-.37.03-.48.08-.96.13-1.43.04-.35.29-.57.58-.55.32.02.52.27.51.64,0,.06,0,.12-.01.18-.1,1.11-.21,2.22-.32,3.32-.24,2.53-.48,5.06-.72,7.59-.04.43.09.57.53.5.17-.03.38-.12.46-.25.27-.45.55-.91.72-1.4,1.47-4.32,2.91-8.64,4.37-12.96.14-.42.42-.6.75-.48.34.12.45.41.31.84-.1.31-.2.61-.32.97Zm-5.65-3c-.13-.06-.19-.09-.25-.12-2.55-1-5.11-1.99-7.67-2.98-.32-.12-.66-.21-1-.27-.49-.09-.85.11-1.01.5-.06.14-.06.23.09.33,2.02,1.37,4.03,2.75,6.04,4.13.07.05.2.08.27.05,1.16-.53,2.31-1.07,3.53-1.64Z"/>
    </g>
  </g>
</svg>