<?xml version="1.0" encoding="UTF-8"?>
<svg id="Layer_2" data-name="Layer 2" xmlns="http://www.w3.org/2000/svg" viewBox="0 0 26.3 21.27">
  <defs>
    <style>
      .cls-1 {
        stroke-width: 0px;
      }
    </style>
  </defs>
  <g id="Layer_1-2" data-name="Layer 1">
    <path class="cls-1" d="m0,20.44c0,.66.17.83.82.83h.42c.56,0,1.12,0,1.68,0,.54,0,.74-.21.75-.76,0-.39,0-.77,0-1.17v-.56s18.97,0,18.97,0v.55c0,.41,0,.81,0,1.21,0,.53.2.73.73.73.83,0,1.55,0,2.21,0,.51,0,.72-.21.72-.71v-1.65c0-2.7,0-5.49,0-8.23,0-1.43-.84-2.57-2.19-2.99-.27-.08-.32-.22-.32-.47,0-1.58,0-3.2,0-4.76v-.37C23.79.73,23.07,0,21.72,0,19.34,0,16.97,0,14.6,0c-3.36,0-6.73,0-10.09,0-1,0-1.7.5-1.93,1.38-.06.22-.06.46-.06.68,0,1.73,0,3.43,0,5.16,0,.28-.09.4-.36.48C.92,8.08.07,9.17.03,10.42,0,11.53,0,12.66,0,13.75c0,.4,0,.8,0,1.2,0,1.83,0,3.66,0,5.49ZM22.64,7.52h-1.35s0-.17,0-.17c0-.09-.01-.18-.01-.26s0-.45,0-.68c0-.44,0-.9,0-1.35-.03-1.13-.74-1.87-1.82-1.9-1.27-.03-2.61-.03-3.97.02-.85.03-1.54.69-1.61,1.54-.04.53-.04,1.08-.04,1.61,0,.24,0,.47,0,.7,0,.1,0,.2,0,.31v.18s-1.37,0-1.37,0v-.2c0-.09,0-.18,0-.26,0-.22,0-.44,0-.66,0-.51,0-1.03-.02-1.54-.04-.89-.76-1.64-1.61-1.66-1.38-.04-2.77-.04-4.16,0-.73.02-1.28.46-1.55,1.23-.09.25-.09.54-.1.82,0,.53,0,1.06,0,1.58,0,.22,0,.43,0,.65v.05h-1.36s0-1.85,0-1.85c0-1.18,0-2.36,0-3.54,0-.76.21-.97.96-.97,5.69,0,11.37,0,17.05,0,.73,0,.96.22.96.95v3.34s0,2.08,0,2.08Zm-11.34-.05v.05h-5.1s0-.05,0-.05c0-.25,0-.49,0-.74,0-.62,0-1.26.01-1.89.01-.31.27-.52.62-.53,1.46,0,2.68,0,3.83,0,.36,0,.61.23.62.57.02.61.01,1.24.01,1.84,0,.25,0,.49,0,.74Zm8.82-.01v.05h-5.13s0-.05,0-.05c0-.25,0-.5,0-.74,0-.6,0-1.17.01-1.75.01-.42.27-.65.7-.66,1.25-.01,2.5-.01,3.72,0,.43,0,.68.25.69.67.02.58.01,1.14,0,1.74,0,.25,0,.49,0,.74ZM1.18,15.01h23.96s0,5.1,0,5.1h-1.3s-.01-.04-.01-.04c0-.02-.01-.04-.01-.06,0-.02-.01-.04-.01-.07v-1.47c0-.7-.17-.86-.87-.86-6.52,0-13.04,0-19.56,0-.7,0-.85.15-.85.87,0,.35,0,.7,0,1.05v.58s-1.34,0-1.34,0v-5.09Zm0-4.67c0-.2.09-.39.17-.55.38-.75,1.03-1.11,1.99-1.11,4.53,0,9.07,0,13.59,0h6.08c.07,0,.15,0,.22,0,1.18.09,1.91.88,1.92,2.05,0,.61,0,1.23,0,1.83v1.24H1.17s0-.91,0-.91c0-.88,0-1.72,0-2.57Z"/>
  </g>
</svg>