<?xml version="1.0" encoding="UTF-8"?>
<svg id="Layer_2" data-name="Layer 2" xmlns="http://www.w3.org/2000/svg" viewBox="0 0 18.24 17.99">
  <defs>
    <style>
      .cls-1 {
        fill: #fff;
        stroke-width: 0px;
      }
    </style>
  </defs>
  <g id="Layer_1-2" data-name="Layer 1">
    <g id="O6lBwQ">
      <path class="cls-1" d="m18.24,7.86c-.01.06-.03.11-.03.17-.09,1.03-.38,2-.89,2.9-.79,1.41-1.91,2.47-3.39,3.14-1.97.89-3.96.9-5.95.07-.46-.19-.88-.45-1.33-.69-.02.02-.05.05-.09.08-.58.58-1.17,1.17-1.75,1.75-.74.74-1.49,1.48-2.23,2.23-.87.88-2.24.47-2.52-.62-.15-.58.03-1.07.45-1.49,1.29-1.29,2.59-2.59,3.88-3.88.24-.24.24-.24.07-.53-.9-1.61-1.18-3.32-.8-5.12.45-2.1,1.61-3.72,3.46-4.83C8.73.07,10.49-.21,12.34.16c1.58.31,2.91,1.09,3.99,2.28.92,1.02,1.52,2.2,1.77,3.55.06.3.09.61.14.91,0,.32,0,.64,0,.96Zm-7.36,4.49c2.75-.01,4.99-2.26,4.97-4.99-.02-2.75-2.24-4.96-4.98-4.97-2.74,0-4.99,2.25-4.98,4.98,0,2.75,2.25,4.99,4.99,4.97Z"/>
    </g>
  </g>
</svg>