<?xml version="1.0" encoding="utf-8"?>
<!-- Generator: Adobe Illustrator 25.4.1, SVG Export Plug-In . SVG Version: 6.00 Build 0)  -->
<svg version="1.0" id="Layer_1" xmlns="http://www.w3.org/2000/svg" xmlns:xlink="http://www.w3.org/1999/xlink" x="0px" y="0px"
	 viewBox="0 0 443.87 43.69" style="enable-background:new 0 0 443.87 43.69;" xml:space="preserve">
<style type="text/css">
	.st0{fill:none;stroke:#989999;stroke-width:0.75;stroke-miterlimit:10;}
	.st1{fill:#374CA0;}
	.st2{fill:#24A6D1;}
	.st3{fill:#F26F24;}
	.st4{fill:#364A5E;}
	.st5{fill-rule:evenodd;clip-rule:evenodd;fill:#076AAA;}
	.st6{fill:#D72027;}
</style>
<g>
	<g>
		<path class="st0" d="M7.91,3.35h72.2c2.85,0,5.16,1.46,5.16,3.26v30.96c0,1.8-2.31,3.26-5.16,3.26H7.91
			c-2.85,0-5.16-1.46-5.16-3.26V6.61C2.75,4.81,5.06,3.35,7.91,3.35z"/>
		<path class="st1" d="M59.69,11.06c-1.61-0.66-3.3-1-5.01-0.98c-5.53,0-9.43,3.16-9.46,7.7c-0.03,3.33,2.77,5.21,4.9,6.33
			c2.18,1.15,2.91,1.87,2.9,2.89c-0.01,1.56-1.74,2.26-3.35,2.26c-2.21,0-3.41-0.35-5.27-1.22l-0.69-0.36l-0.78,5.22
			c1.34,0.64,3.76,1.18,6.26,1.23c5.87,0,9.71-3.14,9.76-7.97c0.05-2.66-1.47-4.67-4.67-6.34c-1.94-1.08-3.15-1.8-3.15-2.89
			c0-0.97,1.03-2,3.19-2c1.44-0.04,2.86,0.27,4.19,0.9l0.52,0.26l0.78-5.05L59.69,11.06L59.69,11.06z M74.03,10.5h-4.32
			c-1.34,0-2.36,0.42-2.94,1.93l-8.3,21.36h5.87l1.17-3.5l7.17,0.01c0.17,0.82,0.69,3.49,0.69,3.49h5.18L74.03,10.5L74.03,10.5z
			 M37.27,10.3h5.6l-3.5,23.3h-5.59L37.27,10.3L37.27,10.3L37.27,10.3z M23.06,23.14l0.58,3.24l5.47-15.88h5.93l-8.81,23.26h-5.92
			l-4.83-19.69c-0.08-0.32-0.26-0.6-0.51-0.78c-1.74-1.02-3.59-1.8-5.5-2.31l0.08-0.49h9.01c1.22,0.05,2.21,0.49,2.53,1.97
			l1.97,10.7L23.06,23.14L23.06,23.14z M67.12,25.52L69.35,19c-0.03,0.07,0.46-1.35,0.74-2.22l0.38,2.01l1.3,6.72L67.12,25.52
			L67.12,25.52L67.12,25.52L67.12,25.52z"/>
	</g>
	<g>
		<path class="st2" d="M106.33,12.22l-7.68,16.99h9.19l1.14-2.71h2.6l1.14,2.71h10.11v-2.07l0.9,2.07h5.23l0.9-2.11v2.11h21.03
			l2.56-2.64l2.39,2.64l10.8,0.02l-7.7-8.47l7.7-8.54h-10.64l-2.49,2.59l-2.32-2.59h-22.88l-1.96,4.38l-2.01-4.38h-9.17v2l-1.02-2
			C114.17,12.22,106.33,12.22,106.33,12.22z M108.11,14.64h4.48l5.09,11.52V14.64h4.91l3.93,8.26l3.62-8.26h4.88v12.19h-2.97
			l-0.02-9.55l-4.33,9.55h-2.66l-4.36-9.55v9.55h-6.11l-1.16-2.73h-6.26L106,26.82h-3.27C102.72,26.82,108.11,14.64,108.11,14.64z
			 M137.74,14.64h12.08l3.69,3.99l3.81-3.99h3.69l-5.61,6.13l5.61,6.06h-3.86l-3.69-4.04l-3.83,4.04h-11.89V14.64L137.74,14.64z
			 M110.28,16.7l-2.06,4.87h4.12L110.28,16.7z M140.72,17.16v2.22h6.59v2.48h-6.59v2.43h7.39l3.43-3.58l-3.29-3.56L140.72,17.16
			L140.72,17.16z"/>
		<path class="st0" d="M96.54,2.93h72.2c2.85,0,5.16,1.46,5.16,3.26v30.96c0,1.8-2.31,3.26-5.16,3.26h-72.2
			c-2.85,0-5.16-1.46-5.16-3.26V6.19C91.38,4.39,93.69,2.93,96.54,2.93z"/>
	</g>
	<g>
		<g>
			<path class="st3" d="M230.31,21.73c0.01-1.6-0.59-3.2-1.8-4.4c-1.21-1.21-2.81-1.81-4.41-1.8c-0.01,0-0.02,0-0.02,0
				c-3.48,0-6.23,2.76-6.23,6.24c0,3.44,2.79,6.23,6.23,6.23c3.48,0,6.24-2.76,6.24-6.23C230.31,21.76,230.31,21.75,230.31,21.73z"
				/>
			<g>
				<path class="st4" d="M216.53,24.56c-0.95,0.95-1.82,1.32-2.76,1.34c-2.3-0.02-3.98-1.72-3.98-4.14c0-1.22,0.46-2.22,1.19-3.07
					l0,0c0.69-0.65,1.57-1.07,2.59-1.07c1.1,0,1.95,0.37,2.93,1.34v-2.8c-0.97-0.49-1.83-0.73-2.93-0.73
					c-1.55,0.11-3.01,0.74-4.13,1.72l0,0c-0.32,0.29-0.63,0.61-0.9,0.98c-0.82,1.06-1.31,2.36-1.31,3.76c0,3.54,2.81,6.22,6.34,6.22
					c0.02,0,0.03,0,0.05,0c0.02,0,0.05,0,0.07,0c0.98,0,1.83-0.24,2.93-0.73L216.53,24.56c-0.04,0.04,0.04,0.08,0,0.12V24.56z"/>
				<polygon class="st4" points="238.4,17.16 238.4,17.16 235.64,23.95 232.47,15.9 229.91,15.9 234.91,28.22 236.25,28.22 
					241.49,15.9 238.93,15.9 				"/>
				<polygon class="st4" points="242.47,21.27 242.47,27.85 249.05,27.85 249.17,27.85 249.17,25.9 247.1,25.9 244.9,25.9 
					244.9,23.7 244.9,22.61 249.05,22.61 249.05,20.53 244.9,20.53 244.9,17.97 249.17,17.97 249.17,15.9 242.47,15.9 				"/>
				<path class="st4" d="M187.35,15.9h-3.41v11.95h3.41c1.83,0,3.17-0.49,4.27-1.34c1.34-1.1,2.2-2.8,2.2-4.63
					C193.81,18.34,191.25,15.9,187.35,15.9z M190.15,24.92c-0.73,0.61-1.71,0.97-3.17,0.97h-0.73v-7.93h0.61
					c1.46,0,2.44,0.24,3.17,0.98c0.85,0.73,1.34,1.83,1.34,2.93C191.49,22.97,191.01,24.19,190.15,24.92z"/>
				<rect x="194.91" y="15.9" class="st4" width="2.32" height="11.95"/>
				<path class="st4" d="M203.08,20.53c-1.46-0.49-1.83-0.85-1.83-1.46c0-0.73,0.73-1.34,1.71-1.34c0.73,0,1.34,0.24,1.95,0.98
					l1.22-1.59c-0.98-0.85-2.19-1.34-3.54-1.34c-2.07,0-3.78,1.46-3.78,3.41c0,1.71,0.73,2.44,2.93,3.29
					c0.98,0.37,1.34,0.49,1.59,0.73c0.49,0.24,0.73,0.73,0.73,1.22c0,0.98-0.73,1.71-1.83,1.71c-1.1,0-2.07-0.61-2.56-1.59
					l-1.46,1.46c1.1,1.59,2.44,2.32,4.15,2.32c2.44,0,4.14-1.59,4.14-3.9C206.49,22.36,205.76,21.51,203.08,20.53z"/>
				<path class="st4" d="M255.76,22.85c1.83-0.37,2.8-1.59,2.8-3.41c0-2.19-1.59-3.54-4.27-3.54h-3.54v11.95h2.32v-4.76h0.37
					l3.29,4.76h2.81L255.76,22.85z M253.81,21.39h-0.73v-3.66h0.73c1.46,0,2.32,0.61,2.32,1.83
					C256.12,20.78,255.27,21.39,253.81,21.39z"/>
			</g>
		</g>
		<g>
			<path class="st0" d="M185.63,3.13h72.2c2.85,0,5.16,1.46,5.16,3.26v30.96c0,1.8-2.31,3.26-5.16,3.26h-72.2
				c-2.85,0-5.16-1.46-5.16-3.26V6.39C180.48,4.59,182.79,3.13,185.63,3.13z"/>
		</g>
	</g>
	<g>
		<g>
			<path class="st0" d="M274.52,2.87h72.2c2.85,0,5.16,1.46,5.16,3.26v30.96c0,1.8-2.31,3.26-5.16,3.26h-72.2
				c-2.85,0-5.16-1.46-5.16-3.26V6.13C269.36,4.33,271.67,2.87,274.52,2.87z"/>
		</g>
		<path class="st5" d="M317.4,21.58c-0.01-3.86-2.42-7.15-5.82-8.45v16.91C314.98,28.73,317.39,25.44,317.4,21.58z M305.1,30.03
			v-16.9c-3.4,1.31-5.8,4.59-5.81,8.45C299.29,25.44,301.7,28.72,305.1,30.03z M308.34,7.29c-7.89,0-14.29,6.4-14.29,14.29
			c0,7.89,6.4,14.29,14.29,14.29c7.89,0,14.29-6.4,14.29-14.29C322.63,13.69,316.23,7.29,308.34,7.29z M308.3,37.22
			c-8.64,0.04-15.74-6.96-15.74-15.47c0-9.31,7.11-15.75,15.74-15.74h4.05c8.53,0,16.32,6.43,16.32,15.74
			c0,8.51-7.79,15.47-16.32,15.47H308.3z"/>
	</g>
	<g>
		<g>
			<path class="st0" d="M363.73,3.31h72.2c2.85,0,5.16,1.46,5.16,3.26v30.96c0,1.8-2.31,3.26-5.16,3.26h-72.2
				c-2.85,0-5.16-1.46-5.16-3.26V6.57C358.57,4.77,360.89,3.31,363.73,3.31z"/>
		</g>
		<g>
			<path class="st6" d="M397.4,10.87V9.21c0-0.37,0.32-0.69,0.69-0.69h3.48c0.37,0,0.69,0.32,0.69,0.69v1.65h0.96
				c0.37,0,0.78,0.05,1.15,0.09V9.21c0-1.51-1.24-2.75-2.75-2.75h-3.48c-1.51,0-2.75,1.24-2.75,2.75V11
				c0.41-0.09,0.78-0.14,1.24-0.14C396.62,10.87,397.4,10.87,397.4,10.87z"/>
			<path class="st6" d="M403.13,35.95h-0.6h-0.41h-0.96c-0.05,0.14-0.09,0.28-0.09,0.46c0,0.69,0.55,1.24,1.24,1.24
				s1.24-0.55,1.24-1.24c0-0.18-0.05-0.32-0.09-0.46C403.41,35.95,403.27,35.95,403.13,35.95z"/>
			<path class="st6" d="M397.54,35.95h-0.41h-0.6c-0.14,0-0.23,0-0.37,0c-0.05,0.14-0.09,0.32-0.09,0.46c0,0.69,0.55,1.24,1.24,1.24
				s1.24-0.55,1.24-1.24c0-0.14-0.05-0.32-0.09-0.46H397.54z"/>
			<path class="st6" d="M403.13,26.68c2.61,0,4.77-2.15,4.77-4.77v-4.91c0-2.61-2.15-4.77-4.77-4.77h-6.6
				c-2.61,0-4.77,2.15-4.77,4.77v12.75c0,1.74,0.96,3.35,2.48,4.22c0.5,0.28,1.15,0.09,1.42-0.41c0.28-0.5,0.09-1.15-0.41-1.42
				c-0.87-0.46-1.42-1.38-1.42-2.38V17.01c0-1.51,1.19-2.71,2.71-2.71h6.6c1.51,0,2.71,1.19,2.71,2.71v4.86
				c0,1.51-1.19,2.71-2.71,2.71h-5.78c-0.6,0-1.05,0.46-1.05,1.05v4.17c0,2.61,2.15,4.77,4.77,4.77h2.06c2.61,0,4.77-2.15,4.77-4.77
				v-1.79c0-0.6-0.46-1.05-1.05-1.05c-0.6,0-1.05,0.46-1.05,1.05v1.79c0,1.51-1.19,2.71-2.71,2.71h-2.06
				c-1.51,0-2.71-1.19-2.71-2.71v-3.12C398.32,26.68,403.13,26.68,403.13,26.68z"/>
		</g>
	</g>
</g>
</svg>
