<?xml version="1.0" encoding="UTF-8"?>
<svg id="Layer_2" data-name="Layer 2" xmlns="http://www.w3.org/2000/svg" viewBox="0 0 12.64 8.84">
  <defs>
    <style>
      .cls-1 {
        fill: #b1b0b5;
        stroke-width: 0px;
      }
    </style>
  </defs>
  <g id="Layer_1-2" data-name="Layer 1">
    <g id="zxeHXq.tif">
      <g>
        <path class="cls-1" d="m5.36,3.74c-.31,0-.61.09-.91.15-1.04.18-2.07.38-3.11.57-.05,0-.1.02-.15.03-.17.02-.3-.05-.35-.22-.04-.16.04-.27.18-.35.34-.18.34-.18.14-.52-.34-.57-.67-1.13-1.01-1.7-.16-.27-.08-.45.2-.58.31-.14.56-.1.83.11.53.41,1.08.78,1.62,1.18.15.11.27.12.44.06,1.87-.67,3.75-1.34,5.62-2,.34-.12.68-.24,1.02-.35.73-.23,1.47-.09,2.21,0,.08.01.16.05.23.09.36.2.42.55.13.85-.17.18-.39.32-.62.41-.86.32-1.72.65-2.59.94-.56.18-1.05.44-1.5.82-.6.51-1.24.99-1.85,1.49-.34.27-.75.35-1.14.49-.1.04-.2,0-.26-.1-.06-.12-.03-.22.05-.32.23-.28.46-.57.69-.86.05-.06.11-.1.12-.2Z"/>
        <path class="cls-1" d="m6.17,8.83c-1.94,0-3.88,0-5.82,0-.35,0-.35,0-.35-.36q0-.43.42-.43c3.84,0,7.67,0,11.51,0,.08,0,.17,0,.25,0,.11,0,.17.06.17.17,0,0,0,.02,0,.03,0,.71.05.58-.54.58-1.88,0-3.76,0-5.64,0Z"/>
      </g>
    </g>
  </g>
</svg>