<?xml version="1.0" encoding="UTF-8"?>
<svg id="Layer_2" data-name="Layer 2" xmlns="http://www.w3.org/2000/svg" viewBox="0 0 25.11 27.39">
  <defs>
    <style>
      .cls-1 {
        fill: #a8905d;
        stroke-width: 0px;
      }
    </style>
  </defs>
  <g id="Layer_1-2" data-name="Layer 1">
    <g>
      <path class="cls-1" d="m25.03,19.84l-.04.06c-2.25,3.92-6.48,6.56-11.33,6.56C6.45,26.46.6,20.61.6,13.4c0-2.36.63-4.58,1.73-6.5l.03-.05v-.05s-.06.02-.06.02l-.03.05c-.2.28-.38.58-.55.88C-1.87,14,.34,22.01,6.66,25.63c6.31,3.62,14.34,1.48,17.92-4.78.18-.3.34-.61.48-.92l.03-.06-.02-.05-.04.02Z"/>
      <path class="cls-1" d="m10.47,3.3c-1.86.4-4.98,2.31-5.64,5.48,2-2.36,4.09-3.61,5.68-3.9-1.63,1.22-3.17,4.07-2.69,6.07.86-2.12,2.38-4.2,3.77-4.96-.79,1.3-1.04,4.43-.29,5.81.18-1.79.74-4.12,1.63-5.27l.27,2.25h-.3l.32,2.29h-.25s.27,2.29.27,2.29h-.22l.34,2.29-1.08.55v.08h2.82s0-.08,0-.08l-1.08-.55-.33.25.33-.25.33-2.29h-.22s.27-2.29.27-2.29h-.26l.32-2.29h-.31l.27-2.25c.89,1.15,1.46,3.48,1.63,5.27.75-1.38.49-4.51-.29-5.81,1.39.76,2.9,2.83,3.77,4.96.47-2-1.06-4.85-2.69-6.07,1.6.29,3.68,1.53,5.68,3.9-.66-3.17-3.78-5.08-5.64-5.48,2.05-.2,4.04.45,5.85,1.33-1.96-2.27-4.93-3.09-6.88-2.86.33-.35.65-.54,1.15-.68-.83-.39-2.12-.18-2.62.38,0,0-.09-1.05-.69-1.46-.6.41-.69,1.46-.69,1.46-.5-.56-1.79-.77-2.62-.38.5.15.82.33,1.15.68-1.96-.22-4.93.6-6.89,2.86,1.81-.88,3.8-1.53,5.85-1.33"/>
      <path class="cls-1" d="m14.23,17.91c-.15.1-.35.23-.56.38-.21-.15-.4-.28-.56-.38-.83-.56-7.85-5.26-10.89-1.93,2.8-1.11,6.95.99,10.37,3.05-.86.58-1.83,1.26-2.66,1.82-1.31-1.27-1.8-1.07-1.92-1.02-.13.05-.22.17-.22.32,0,.19.15.35.33.36.19,0,.35-.15.35-.34v-.08c.36.23.69.54,1.54,1.41.86.89,1.2,1.14,1.45,1.29.17.1.35.13.46.12.18,0,.36-.14.36-.34.01-.2-.14-.36-.33-.37-.19,0-.35.15-.35.35v.03c-.23-.17-.49-.48-.99-1.02.82-.47,1.87-1.15,3.04-1.88,1.17.73,2.22,1.41,3.04,1.88-.5.54-.75.85-.99,1.02v-.03c0-.2-.16-.35-.35-.35-.19,0-.34.17-.33.37,0,.2.18.33.36.34.11,0,.29-.02.46-.12.25-.15.59-.4,1.45-1.29.85-.87,1.19-1.18,1.55-1.41v.08c0,.19.16.35.34.34.19,0,.34-.17.33-.36,0-.15-.1-.27-.22-.32-.12-.05-.61-.25-1.92,1.02-.83-.56-1.8-1.23-2.66-1.82,3.42-2.06,7.57-4.16,10.37-3.05-3.04-3.32-10.05,1.37-10.88,1.93"/>
      <path class="cls-1" d="m6.39,22.28c-.11-.05-.22-.11-.28-.12-.04,0-.07,0-.1.03-.02.03-.03.09,0,.13.02.03.06.1.17.19.46.4,1.38.76,3.82-.61-.07-.07-.15-.15-.23-.23-.16-.17-.31-.32-.43-.44-1.29.81-2.31,1.3-2.93,1.04"/>
      <path class="cls-1" d="m20.94,22.28c-.63.26-1.65-.23-2.93-1.04-.13.13-.27.28-.43.44-.08.08-.16.16-.23.23,2.43,1.36,3.36,1,3.81.61.11-.1.15-.16.17-.19.03-.05.02-.11,0-.13-.02-.03-.06-.04-.1-.03-.06,0-.17.07-.28.12"/>
    </g>
  </g>
</svg>