<?xml version="1.0" encoding="UTF-8"?>
<svg id="Layer_2" data-name="Layer 2" xmlns="http://www.w3.org/2000/svg" viewBox="0 0 104.61 104.61">
  <defs>
    <style>
      .cls-1 {
        fill: #ff0007;
      }

      .cls-1, .cls-2 {
        stroke-width: 0px;
      }

      .cls-2 {
        fill: #fff;
        fill-rule: evenodd;
      }
    </style>
  </defs>
  <g id="Layer_1-2" data-name="Layer 1">
    <g>
      <rect class="cls-1" x="0" y="0" width="104.61" height="104.61" rx="52.3" ry="52.3"/>
      <g>
        <path class="cls-2" d="m29.27,62.89c2.87-2.87,6.75-4.48,10.81-4.48h24.45c4.05,0,7.94,1.61,10.81,4.48,2.87,2.87,4.48,6.75,4.48,10.81v6.11c0,1.69-1.37,3.06-3.06,3.06-1.69,0-3.06-1.37-3.06-3.06v-6.11c0-2.43-.97-4.76-2.69-6.48-1.72-1.72-4.05-2.69-6.48-2.69h-24.45c-2.43,0-4.76.97-6.48,2.69-1.72,1.72-2.69,4.05-2.69,6.48v6.11c0,1.69-1.37,3.06-3.06,3.06-1.69,0-3.06-1.37-3.06-3.06v-6.11c0-4.05,1.61-7.94,4.48-10.81Z"/>
        <path class="cls-2" d="m37.02,37.02c0-8.44,6.84-15.28,15.28-15.28,8.44,0,15.28,6.84,15.28,15.28s-6.84,15.28-15.28,15.28-15.28-6.84-15.28-15.28Zm15.28-9.17c-5.06,0-9.17,4.11-9.17,9.17s4.11,9.17,9.17,9.17c5.06,0,9.17-4.11,9.17-9.17s-4.11-9.17-9.17-9.17Z"/>
      </g>
    </g>
  </g>
</svg>