<?xml version="1.0" encoding="UTF-8"?>
<svg id="Layer_2" data-name="Layer 2" xmlns="http://www.w3.org/2000/svg" viewBox="0 0 20.96 15.02">
  <defs>
    <style>
      .cls-1 {
        fill: #ff0007;
        stroke-width: 0px;
      }
    </style>
  </defs>
  <g id="Layer_1-2" data-name="Layer 1">
    <path class="cls-1" d="m0,7c.32-.56.63-1.13.95-1.69.17-.3.28-.35.62-.27,1.19.3,2.39.61,3.59.91.09.02.21.02.29-.02.69-.32,1.38-.65,2.07-.98.04-.02.07-.04.11-.07-.25-.17-.49-.34-.73-.51-1.05-.72-2.09-1.44-3.14-2.16-.33-.23-.39-.39-.28-.78.23-.84.89-1.23,1.79-.97.7.2,1.39.49,2.07.76,1.42.55,2.83,1.1,4.24,1.66.14.05.25.05.39-.01,1.76-.83,3.52-1.65,5.27-2.48.72-.34,1.47-.5,2.26-.35,1.3.25,1.85,1.54,1.17,2.7-.33.57-.81,1-1.4,1.28-1.58.75-3.16,1.48-4.74,2.22-.17.08-.27.18-.34.37-.77,2.3-1.54,4.6-2.33,6.89-.12.35-.29.7-.51.99-.52.7-1.34.62-1.91.16-.09-.08-.15-.27-.14-.4.06-.77.14-1.53.21-2.3.11-1.14.22-2.28.32-3.42,0-.02,0-.04-.02-.08-.09.04-.17.07-.24.11-1.93.9-3.86,1.8-5.8,2.71-.4.18-.54.13-.72-.26-.24-.51-.47-1.01-.71-1.52-.14-.3-.08-.47.22-.61.16-.08.32-.15.52-.24-.09-.04-.15-.07-.21-.09-.84-.35-1.69-.69-2.53-1.05C.23,7.44.12,7.31,0,7.2c0-.07,0-.14,0-.2Zm14.62-1.59c.06-.02.08-.02.09-.03,1.37-.64,2.74-1.28,4.11-1.93.56-.26,1.01-.64,1.29-1.21.31-.64,0-1.28-.69-1.43-.66-.15-1.27,0-1.86.27-3.96,1.85-7.91,3.7-11.87,5.55-.2.09-.38.11-.59.06-1.14-.29-2.27-.57-3.41-.84-.06-.02-.18,0-.2.04-.2.34-.39.68-.6,1.04.1.04.18.08.26.11.97.4,1.94.8,2.91,1.2.17.07.32.17.33.37,0,.21-.14.31-.31.39-.31.14-.61.29-.94.44.17.37.34.73.51,1.09.05-.02.09-.03.13-.05,2.01-.93,4.01-1.87,6.02-2.8.12-.05.15-.13.16-.25.02-.32.05-.64.09-.96.03-.23.19-.38.39-.37.21.01.35.18.34.43,0,.04,0,.08,0,.12-.07.74-.14,1.48-.21,2.22-.16,1.69-.32,3.38-.48,5.07-.03.28.06.38.35.33.11-.02.26-.08.31-.17.18-.3.37-.61.48-.94.98-2.88,1.95-5.77,2.92-8.66.09-.28.28-.4.5-.32.23.08.3.27.2.56-.07.21-.14.41-.21.65Zm-3.77-2c-.08-.04-.12-.06-.17-.08-1.71-.67-3.41-1.33-5.12-1.99-.21-.08-.44-.14-.67-.18-.33-.06-.57.07-.67.33-.04.09-.04.16.06.22,1.35.92,2.69,1.84,4.04,2.76.05.03.13.05.18.03.77-.35,1.54-.72,2.35-1.09Z"/>
  </g>
</svg>