<?xml version="1.0" encoding="UTF-8"?>
<svg id="Layer_2" data-name="Layer 2" xmlns="http://www.w3.org/2000/svg" viewBox="0 0 17.57 14.21">
  <defs>
    <style>
      .cls-1 {
        fill: #ff0007;
        stroke-width: 0px;
      }
    </style>
  </defs>
  <g id="Layer_1-2" data-name="Layer 1">
    <path class="cls-1" d="m0,13.65c0,.44.11.55.54.55h.28c.37,0,.75,0,1.12,0,.36,0,.5-.14.5-.51,0-.26,0-.52,0-.78v-.38s12.67,0,12.67,0v.37c0,.27,0,.54,0,.81,0,.35.13.48.49.49.55,0,1.04,0,1.48,0,.34,0,.48-.14.48-.47v-1.1c0-1.8,0-3.66,0-5.5,0-.95-.56-1.72-1.46-2-.18-.06-.21-.15-.21-.31,0-1.06,0-2.14,0-3.18v-.24C15.89.49,15.41,0,14.51,0,12.92,0,11.34,0,9.75,0c-2.25,0-4.49,0-6.74,0-.67,0-1.14.34-1.29.92-.04.15-.04.3-.04.45,0,1.16,0,2.29,0,3.45,0,.19-.06.27-.24.32C.62,5.4.04,6.13.02,6.96,0,7.7,0,8.45,0,9.18c0,.27,0,.53,0,.8,0,1.22,0,2.44,0,3.67ZM15.12,5.02h-.9v-.11c0-.06-.01-.12-.01-.18,0-.15,0-.3,0-.45,0-.3,0-.6,0-.9-.02-.75-.49-1.25-1.21-1.27-.85-.02-1.74-.02-2.65.01-.57.02-1.03.46-1.07,1.03-.03.36-.03.72-.03,1.08,0,.16,0,.31,0,.47,0,.07,0,.13,0,.2v.12s-.91,0-.91,0v-.14c0-.06,0-.12,0-.18,0-.15,0-.3,0-.44,0-.34,0-.69-.01-1.03-.02-.6-.51-1.09-1.07-1.11-.92-.03-1.85-.03-2.78,0-.49.01-.86.31-1.03.82-.06.17-.06.36-.06.55,0,.35,0,.71,0,1.05,0,.14,0,.29,0,.43v.04h-.91v-1.24c0-.79,0-1.58,0-2.36,0-.51.14-.65.64-.65,3.8,0,7.6,0,11.39,0,.49,0,.64.15.64.63,0,.74,0,1.49,0,2.23v1.39Zm-7.58-.03v.04h-3.4v-.04c0-.16,0-.33,0-.49,0-.41,0-.84,0-1.26,0-.21.18-.35.42-.35.98,0,1.79,0,2.56,0,.24,0,.41.16.42.38.01.41,0,.83,0,1.23,0,.17,0,.33,0,.5Zm5.89,0v.04h-3.43v-.04c0-.17,0-.33,0-.49,0-.4,0-.78,0-1.17,0-.28.18-.44.47-.44.83,0,1.67,0,2.49,0,.29,0,.46.17.46.45.01.39,0,.76,0,1.16,0,.16,0,.33,0,.5ZM.79,10.02h16v3.41h-.87v-.03s-.01-.03-.02-.04c0-.02,0-.03,0-.04v-.98c0-.47-.11-.57-.58-.57-4.36,0-8.71,0-13.07,0-.46,0-.56.1-.57.58,0,.23,0,.47,0,.7v.39s-.9,0-.9,0v-3.4Zm0-3.12c0-.13.06-.26.11-.36.25-.5.69-.74,1.33-.74,3.03,0,6.06,0,9.08,0h4.06s.1,0,.15,0c.79.06,1.28.59,1.28,1.37,0,.41,0,.82,0,1.22v.83H.78v-.6c0-.59,0-1.15,0-1.72Z"/>
  </g>
</svg>