<?xml version="1.0" encoding="UTF-8"?>
<svg id="Layer_2" data-name="Layer 2" xmlns="http://www.w3.org/2000/svg" viewBox="0 0 91.9 37.28">
  <defs>
    <style>
      .cls-1 {
        fill: #ff0007;
      }

      .cls-1, .cls-2 {
        stroke-width: 0px;
      }

      .cls-2 {
        fill: #fff;
      }
    </style>
  </defs>
  <g id="Layer_1-2" data-name="Layer 1">
    <g>
      <g>
        <path class="cls-1" d="m6.74,5.26v-1.97c0-.44.36-.8.8-.8h4.15c.44,0,.8.36.8.8v1.97h1.12c.46,0,.92.05,1.36.13v-2.1c0-1.81-1.47-3.28-3.28-3.28h-4.15c-1.81,0-3.28,1.47-3.28,3.28v2.12c.47-.09.96-.15,1.46-.15h1.03Z"/>
        <path class="cls-1" d="m13.62,35.25h-.71s-.51,0-.51,0h-1.13c-.07.17-.1.35-.1.54,0,.82.67,1.49,1.49,1.49s1.49-.67,1.49-1.49c0-.2-.04-.38-.11-.55-.14,0-.28.01-.42.01Z"/>
        <path class="cls-1" d="m6.93,35.25h-.51s-.71,0-.71,0c-.14,0-.28,0-.42-.01-.07.17-.11.36-.11.55,0,.82.67,1.49,1.49,1.49s1.49-.67,1.49-1.49c0-.19-.04-.37-.1-.54h-1.13Z"/>
        <path class="cls-1" d="m13.62,24.15c3.15,0,5.71-2.56,5.71-5.71v-5.82c0-3.15-2.56-5.71-5.71-5.71h-7.91C2.56,6.91,0,9.47,0,12.63v15.25c0,2.09,1.14,4.01,2.97,5.01.6.33,1.36.11,1.68-.49.33-.6.11-1.36-.49-1.68-1.04-.57-1.68-1.66-1.68-2.84v-15.25c0-1.78,1.45-3.23,3.23-3.23h7.91c1.78,0,3.23,1.45,3.23,3.23v5.82c0,1.78-1.45,3.23-3.23,3.23h-6.93c-.69,0-1.24.56-1.24,1.24v4.97c0,3.15,2.56,5.71,5.71,5.71h2.46c3.15,0,5.71-2.56,5.71-5.71v-2.14c0-.69-.56-1.24-1.24-1.24s-1.24.56-1.24,1.24v2.14c0,1.78-1.45,3.23-3.23,3.23h-2.46c-1.78,0-3.23-1.45-3.23-3.23v-3.72s5.69,0,5.69,0Z"/>
      </g>
      <g>
        <path class="cls-2" d="m28.49,33.45c.7,0,1.28-.57,1.28-1.28v-4.55s2.79,0,2.79,0l4.01,5.21c.38.51.82.62,1.13.62.68,0,1.28-.59,1.28-1.26,0-.41-.21-.7-.37-.89l-3.24-4.17c2.3-.66,3.61-2.29,3.61-4.53v-.04c0-1.26-.45-2.39-1.26-3.21-1.03-1.03-2.63-1.6-4.49-1.6h-4.72c-.69,0-1.26.57-1.26,1.28v13.14c0,.7.56,1.28,1.26,1.28Zm1.28-8.19v-5.1s3.32,0,3.32,0c2.12,0,3.33.9,3.33,2.47v.04c0,1.58-1.31,2.59-3.35,2.59h-3.3Z"/>
        <path class="cls-2" d="m46.12,33.59c1.77,0,3.13-.54,4.39-1.75.26-.23.4-.53.4-.85,0-.62-.52-1.13-1.15-1.13-.26,0-.51.09-.76.3-.85.78-1.75,1.15-2.84,1.15-1.71,0-2.98-1.09-3.32-2.81h7.36c.66,0,1.19-.53,1.19-1.19,0-2.95-1.88-5.94-5.48-5.94-3.17,0-5.65,2.68-5.65,6.09v.04c0,3.47,2.52,6.09,5.86,6.09Zm-.25-9.99c1.83,0,2.72,1.39,2.97,2.83h-6c.34-1.69,1.53-2.83,3.03-2.83Z"/>
        <path class="cls-2" d="m86.62,33.59c1.77,0,3.13-.54,4.39-1.75.26-.23.4-.53.4-.85,0-.62-.52-1.13-1.15-1.13-.26,0-.51.09-.76.3-.85.78-1.75,1.15-2.84,1.15-1.71,0-2.98-1.09-3.32-2.81h7.36c.66,0,1.19-.53,1.19-1.19,0-2.95-1.88-5.94-5.48-5.94-3.17,0-5.65,2.68-5.65,6.09v.04c0,3.47,2.52,6.09,5.86,6.09Zm-.25-9.99c1.83,0,2.72,1.39,2.97,2.83h-6c.34-1.69,1.53-2.83,3.03-2.83Z"/>
        <path class="cls-2" d="m55.6,33.45c.69,0,1.23-.55,1.23-1.26v-5.51c0-1.75,1.16-2.97,2.82-2.97s2.57,1.04,2.57,2.85v5.64c0,.7.55,1.26,1.26,1.26s1.23-.55,1.23-1.26v-6.03c0-2.91-1.8-4.79-4.6-4.79-1.32,0-2.42.43-3.29,1.29v-4.39c0-.69-.56-1.26-1.25-1.26s-1.23.56-1.23,1.26v13.92c0,.7.55,1.26,1.25,1.26Z"/>
        <path class="cls-2" d="m68.94,33.45c.69,0,1.23-.55,1.23-1.26v-13.92c0-.69-.56-1.26-1.25-1.26s-1.23.56-1.23,1.26v13.92c0,.7.55,1.26,1.25,1.26Z"/>
        <path class="cls-2" d="m73.28,23.9h.45s0,6.13,0,6.13c0,2.23,1.28,3.51,3.51,3.51.66,0,1.22-.1,1.75-.32.46-.18.74-.57.74-1.04,0-.62-.51-1.13-1.13-1.13-.1,0-.18.02-.29.05-.16.04-.37.1-.7.1-.98,0-1.39-.41-1.39-1.37v-5.92s2.38,0,2.38,0c.65,0,1.17-.52,1.17-1.15,0-.62-.54-1.15-1.17-1.15h-2.38s0-2.13,0-2.13c0-.68-.57-1.26-1.26-1.26s-1.23.55-1.23,1.26v2.13s-.45,0-.45,0c-.63,0-1.15.52-1.15,1.15,0,.62.53,1.15,1.15,1.15Z"/>
      </g>
    </g>
  </g>
</svg>