<?xml version="1.0" encoding="UTF-8"?>
<svg id="Layer_2" data-name="Layer 2" xmlns="http://www.w3.org/2000/svg" viewBox="0 0 13.36 14.85">
  <defs>
    <style>
      .cls-1 {
        fill: #ff0007;
        fill-rule: evenodd;
        stroke-width: 0px;
      }
    </style>
  </defs>
  <g id="Layer_1-2" data-name="Layer 1">
    <g>
      <path class="cls-1" d="m1.09,10c.7-.7,1.64-1.09,2.63-1.09h5.94c.98,0,1.93.39,2.63,1.09.7.7,1.09,1.64,1.09,2.63v1.48c0,.41-.33.74-.74.74s-.74-.33-.74-.74v-1.48c0-.59-.23-1.16-.65-1.58-.42-.42-.98-.65-1.58-.65H3.71c-.59,0-1.16.23-1.58.65-.42.42-.65.98-.65,1.58v1.48c0,.41-.33.74-.74.74S0,14.52,0,14.11v-1.48c0-.98.39-1.93,1.09-2.63Z"/>
      <path class="cls-1" d="m2.97,3.71c0-2.05,1.66-3.71,3.71-3.71s3.71,1.66,3.71,3.71-1.66,3.71-3.71,3.71-3.71-1.66-3.71-3.71Zm3.71-2.23c-1.23,0-2.23,1-2.23,2.23,0,1.23,1,2.23,2.23,2.23,1.23,0,2.23-1,2.23-2.23,0-1.23-1-2.23-2.23-2.23Z"/>
    </g>
  </g>
</svg>