<?xml version="1.0" encoding="UTF-8"?>
<svg id="Layer_2" data-name="Layer 2" xmlns="http://www.w3.org/2000/svg" viewBox="0 0 15.65 15.64">
  <defs>
    <style>
      .cls-1 {
        fill: #ff0007;
        stroke-width: 0px;
      }
    </style>
  </defs>
  <g id="Layer_1-2" data-name="Layer 1">
    <g>
      <path class="cls-1" d="m15.65,8.59c0-.61-.31-1.05-.89-1.26v-1.56c0-.99-.61-1.72-1.58-1.9v-.82c0-.81-.52-1.33-1.33-1.34-.87,0-1.74,0-2.64,0-.03-.09-.07-.19-.1-.28-.04-.12-.09-.23-.12-.35C8.82.49,8.45.12,7.85,0h-.3S2.27,1.91,2.27,1.91c-.08.03-.16.06-.24.09-.6.25-.9.92-.7,1.54.04.12.08.24.13.37-.02,0-.03,0-.05.01-.75.21-1.21.7-1.37,1.46l.21.04-.23.02v8.57s0,.07,0,.07c.02.06.04.13.06.19.05.15.1.31.19.46.32.56.83.87,1.51.91.03,0,.06,0,.09,0h2.76c.92,0,1.83,0,2.75,0,1.84,0,3.68,0,5.52,0,.88,0,1.61-.57,1.82-1.43.04-.18.05-.37.05-.49,0-.43,0-.86,0-1.29v-.32c.54-.17.89-.64.89-1.21,0-.66,0-1.32,0-1.97v-.33ZM7.98,3.04h3.88s0,.01,0,.02v.8h-3.88v-.81h0Zm-1.32.82h-.58c-1.07,0-2.14,0-3.24,0-.05-.14-.1-.29-.15-.43l-.09-.25,5.07-1.84c.05.13.09.26.14.39-.06,0-.11.01-.17.02-.57.12-.98.62-.99,1.2,0,.25,0,.5,0,.76v.15Zm6.78,3.42h-.41c-.34,0-.68,0-1.02,0-.66,0-1.28.26-1.74.73-.46.47-.7,1.09-.7,1.75.01,1.31,1.09,2.39,2.4,2.4.37,0,.75,0,1.13,0h.33v.61c0,.33,0,.67,0,1,0,.31-.23.54-.54.55H1.96c-.44,0-.64-.2-.64-.63v-7.89c0-.42.2-.62.61-.62h10.89c.41,0,.61.2.61.61v1.49Zm-.72,3.55c-.31,0-.61.01-.9-.01-.55-.06-.96-.59-.92-1.18.04-.56.52-1.03,1.08-1.04.59,0,1.18,0,1.77,0h.58c0,.74,0,1.48,0,2.25h-.97s-.21-.02-.21-.02c-.14,0-.28,0-.42,0Z"/>
      <path class="cls-1" d="m12.01,9.07h0c-.36,0-.65.3-.65.66,0,.35.3.66.65.66h0c.17,0,.34-.07.47-.2.13-.13.2-.3.19-.47,0-.36-.3-.65-.66-.65Z"/>
    </g>
  </g>
</svg>