<?xml version="1.0" encoding="UTF-8"?>
<svg id="Layer_2" data-name="Layer 2" xmlns="http://www.w3.org/2000/svg" viewBox="0 0 23.53 23.53">
  <defs>
    <style>
      .cls-1 {
        fill: #ff0007;
      }

      .cls-1, .cls-2 {
        stroke-width: 0px;
      }

      .cls-2 {
        fill: #f5f3f3;
        fill-rule: evenodd;
      }
    </style>
  </defs>
  <g id="Layer_1-2" data-name="Layer 1">
    <g>
      <circle class="cls-1" cx="11.76" cy="11.76" r="11.76"/>
      <path class="cls-2" d="m11.57,17.04c-1.05,0-2.03-.31-2.84-.84l-1.99.63.65-1.9c-.61-.84-.98-1.89-.98-3,0-.17.01-.34.03-.5.25-2.59,2.46-4.63,5.14-4.63s4.94,2.08,5.15,4.72c.01.13.02.26.02.4,0,2.82-2.31,5.12-5.16,5.12h0Zm2.82-3.89c-.16-.07-.89-.44-1.03-.49-.14-.05-.24-.07-.34.07-.1.15-.39.49-.48.58-.09.1-.17.11-.33.04-.15-.07-.63-.23-1.21-.74-.45-.4-.75-.89-.84-1.04-.09-.15,0-.23.07-.3.06-.06.15-.17.22-.26.02-.02.04-.05.05-.07.04-.06.06-.11.1-.18.05-.1.03-.19-.01-.26-.04-.07-.34-.81-.46-1.11-.13-.3-.25-.25-.34-.25-.09,0-.19-.02-.29-.02s-.26.04-.4.19c-.13.15-.52.51-.52,1.25,0,.18.03.35.07.51.16.53.48.96.54,1.04.07.1,1.04,1.66,2.57,2.26,1.53.6,1.53.4,1.81.37.28-.02.89-.36,1.02-.71.13-.35.13-.65.09-.71-.04-.06-.14-.1-.29-.17h0Zm3.32-1.38c-.09-3.29-2.8-5.94-6.14-5.94-3.3,0-5.99,2.59-6.14,5.83,0,.09,0,.18,0,.27,0,1.15.32,2.23.88,3.15l-1.11,3.27,3.4-1.08c.88.49,1.89.76,2.97.76,3.39,0,6.14-2.73,6.14-6.09v-.16h0Z"/>
    </g>
  </g>
</svg>